<svg xmlns="http://www.w3.org/2000/svg" xmlns:xlink="http://www.w3.org/1999/xlink" viewBox="0 0 2530.84 1447.01"><defs><style>.cls-1{fill:none;}.cls-2{isolation:isolate;}.cls-3{fill:url(#linear-gradient);}.cls-4{clip-path:url(#clip-path);}.cls-5{mix-blend-mode:overlay;}.cls-6{opacity:0.3;fill:url(#linear-gradient-2);}.cls-6,.cls-7,.cls-8{mix-blend-mode:screen;}.cls-7{opacity:0.25;fill:url(#linear-gradient-3);}.cls-8{fill:#fff;opacity:0.15;}</style><linearGradient id="linear-gradient" x1="771.03" y1="-15.78" x2="1767.3" y2="1263.52" gradientUnits="userSpaceOnUse"><stop offset="0" stop-color="#6a0088"/><stop offset="1" stop-color="#060b45"/></linearGradient><clipPath id="clip-path" transform="translate(332.49 114.23)"><rect class="cls-1" width="1921.12" height="1080.63"/></clipPath><linearGradient id="linear-gradient-2" x1="701.55" y1="-89.17" x2="-366.26" y2="945.35" gradientUnits="userSpaceOnUse"><stop offset="0" stop-color="#fff"/><stop offset="1" stop-opacity="0"/></linearGradient><linearGradient id="linear-gradient-3" x1="1514.85" y1="592.15" x2="1768.36" y2="1385.96" xlink:href="#linear-gradient-2"/></defs><g class="cls-2"><g id="BACKGROUND"><rect class="cls-3" x="332.49" y="114.23" width="1921.12" height="1080.63"/></g><g id="OBJECTS"><g class="cls-4"><g class="cls-5"><path class="cls-6" d="M827.5-87.21c35.34-9.3,69.77-22.65,107.54-8.43C968.69-83,992.51-39,971.52-9.8c-15.32,21.32-45.17,24.64-71.38,26.13-77.41,4.4-163.24,13.21-214.87,71.06-34.33,38.46-46.59,91.8-75.78,134.3C544.3,316.58,447.78,297.37,350.05,305c-100.2,7.78-207.42,22-274.32,106.41C36,461.45,20.27,527.18,19.81,591.1c-.74,102.09,84.16,328-23.88,402-42.58,29.18-99.42,18.37-150.92,21.93-46.45,3.21-77.77,25.14-119.47,37.62-14.14,4.24-31,2.65-41.46-7.77-7.78-7.74-10.87-19-12.84-29.75-14.45-79,15.16-159.54,53.05-230.4S-190.85,647-166,570.62c29.2-89.79,26.86-189.95,71.86-273A266.81,266.81,0,0,1,30.57,182.17c54.5-24.34,116.28-29.86,169.45-57,55.11-28.11,97.9-79.44,115.62-138.71,6.58-22,10-45.35,21.82-65,22-36.63,43.73-26,75.48-18.41,38.56,9.16,85.28,4.44,124.9,6.16l185.82,8c20.48.89,41.7,3.5,62.19,2.69C800-80.62,813.83-83.61,827.5-87.21Z" transform="translate(332.49 114.23)"/><path class="cls-7" d="M1103.16,974.49c76.83-32.26,164.38-3.43,242.06,26.72,83.65,32.47,179.34,34.52,265.31,3.35,58.94-21.37,116.52-69.93,144.19-127.14,32.21-66.61-12.51-148.91-16.81-218.43-2.78-45.1-5.33-84,27.51-120.65a125.7,125.7,0,0,1,88-41.23c36.29-1.29,71.86,13.32,108.12,11.2,31-1.81,59.36-16.92,80.46-39.24,21.44-22.68,34.76-67.8,73.13-44,31.36,19.46,60.07,70.84,72.84,104.25,17,44.61,14.51,100.09-18.8,134.3-30,30.84-76.17,37.41-117.26,50.25-85.48,26.71-161.48,91.36-188.52,176.73-14.54,45.91-14.68,95-23.06,142.43s-27.72,96.7-68.41,122.47c-77.29,48.94-186.28-10.11-268.28,30.46-40.3,19.94-68,61.62-110.6,76-26.7,9-55.76,6-83.77,2.94-68.18-7.51-136,10-204.08-1.29C954.79,1238.09,986.08,1023.63,1103.16,974.49Z" transform="translate(332.49 114.23)"/><path class="cls-8" d="M1893.23-114.1c-128.57,2.74-282.31,21.78-385.9,105.83-48.13,39-106.15,86.16-170.64,89.66C1302.4,83.25,1268,72.3,1234,76.9s-69.36,35.49-59.26,68.32c5.18,16.85,19.09,26.57,36,32,52.53,16.77,69.18,83.91,28.83,121.49-.89.84-1.8,1.65-2.72,2.45-33.08,28.66-78.36,38.57-122,42.44-161,14.33-335-37.55-478.31,37.11-99.22,51.67-161,153.77-248,224.12C306.6,671.14,201.27,708,95.81,707.33,34.67,706.94-35.14,697.18-79.74,739c-32.3,30.3-39.58,78.06-45,122q-29.12,235.88-58.21,471.75c-1.5-45.59,34.3-85.81,76.27-103.69S-17.61,1211,28,1211.81c140.73,2.42,282.36,11.24,421.6-9.35s278.68-73.87,374.5-177c112-120.57,161.75-303.88,308.2-379,113.6-58.28,266.86-39,354.12-132.18,63.77-68.1,68.88-175,128.46-246.76,77.69-93.62,219.67-98.65,320.85-166.2,33.57-22.41,63.41-53.42,74.59-92.21s-.52-85.79-34.52-107.56C1951.85-113.78,1921.67-114.71,1893.23-114.1Z" transform="translate(332.49 114.23)"/></g></g></g></g></svg>