<svg id="Layer_1" data-name="Layer 1" xmlns="http://www.w3.org/2000/svg" viewBox="0 0 50 50"><defs><style>.cls-1{fill:none;}.cls-1,.cls-2{stroke:#231f20;stroke-miterlimit:10;}.cls-2{fill:#010101;}</style></defs><path class="cls-1" d="M17.92,27.06v-4.7a7.57,7.57,0,0,1,7.57-7.57h0a7.58,7.58,0,0,1,7.58,7.57v4.7a7.58,7.58,0,0,1-7.58,7.57"/><path class="cls-2" d="M19.44,22.37h-.3a4.31,4.31,0,0,0-4.31,4.31v.78a4.31,4.31,0,0,0,4.31,4.31h.3Z"/><path class="cls-2" d="M31.54,22.37h.31a4.31,4.31,0,0,1,4.31,4.31v.78a4.31,4.31,0,0,1-4.31,4.31h-.31Z"/><path class="cls-2" d="M28.1,34.5a1.17,1.17,0,0,1-1.17,1.18H24.06a1.18,1.18,0,0,1-1.18-1.18h0a1.17,1.17,0,0,1,1.18-1.17h2.87A1.17,1.17,0,0,1,28.1,34.5Z"/><path class="cls-1" d="M8.9,25A16.67,16.67,0,1,1,25.57,41.64,16.67,16.67,0,0,1,8.9,25Z"/></svg>