<svg xmlns="http://www.w3.org/2000/svg" xmlns:xlink="http://www.w3.org/1999/xlink" viewBox="0 0 524.76 296.14"><defs><style>.cls-1{fill:#e9ebf6;}.cls-1,.cls-10,.cls-12,.cls-15,.cls-16,.cls-17,.cls-18,.cls-19,.cls-2,.cls-20,.cls-21,.cls-25,.cls-26,.cls-27,.cls-28,.cls-29,.cls-3,.cls-30,.cls-31,.cls-32,.cls-33,.cls-34,.cls-4,.cls-40,.cls-43,.cls-45,.cls-46,.cls-47,.cls-48,.cls-49,.cls-5,.cls-50,.cls-51,.cls-52,.cls-53,.cls-54,.cls-57,.cls-58,.cls-59,.cls-6,.cls-61,.cls-7,.cls-8,.cls-9{fill-rule:evenodd;}.cls-2{fill:#c3c3c3;}.cls-3{fill:#8897cb;}.cls-37,.cls-4{fill:#d1d4eb;}.cls-24,.cls-5{fill:#fff;}.cls-13,.cls-6{fill:#0076bd;}.cls-14,.cls-7{fill:#04263b;}.cls-8{fill:#d54944;}.cls-9{fill:#ed9072;}.cls-10{fill:#ec726e;}.cls-11,.cls-27{fill:#004a82;}.cls-12,.cls-22{fill:#01020e;}.cls-15{fill:#f4a50f;}.cls-16,.cls-39{fill:#f9c00b;}.cls-17{fill:#d2dbee;}.cls-18,.cls-38{fill:#e03c82;}.cls-19{fill:#e74d91;}.cls-20{fill:#e6eaf6;}.cls-21,.cls-23{fill:#0e1632;}.cls-25{fill:#9eb1d9;}.cls-26{fill:#06385a;}.cls-28{fill:#fbe3d5;}.cls-29{fill:#f08d1b;}.cls-30{fill:#f6af13;}.cls-31{fill:#c4cee9;}.cls-32{fill:#acb6dc;}.cls-33,.cls-55{fill:#363c64;}.cls-34{fill:#1e2344;}.cls-35{fill:#8495ba;}.cls-36{fill:#c1cde6;}.cls-40{fill:#b92f6d;}.cls-41{fill:#383d5d;stroke:#1d1f1f;stroke-linecap:round;stroke-linejoin:round;stroke-width:0.22px;}.cls-42{fill:#000716;}.cls-43,.cls-44{fill:#010518;}.cls-45{fill:url(#GradientFill_1);}.cls-46{fill:#edf0f8;}.cls-47{fill:#bfcce8;}.cls-48{fill:#de563f;}.cls-49{fill:#ee8465;}.cls-50,.cls-56{fill:#0f1b36;}.cls-51{fill:#272a47;}.cls-52{fill:#ef8c65;}.cls-53{fill:#faddd6;}.cls-54{fill:#c41a4b;}.cls-57{fill:#851d45;}.cls-58{fill:#ee801f;}.cls-59{fill:#f4a106;}.cls-60{fill:#24365a;}.cls-61{fill:#e95a5e;}</style><linearGradient id="GradientFill_1" x1="304.58" y1="461.53" x2="283.58" y2="292.88" gradientTransform="matrix(-1, 0, 0, 1, 566.71, 0)" gradientUnits="userSpaceOnUse"><stop offset="0" stop-color="#d6d9ed"/><stop offset="1" stop-color="#d1d4eb"/></linearGradient></defs><g id="OBJECTS"><path class="cls-1" d="M491.37,298.17H55.3a30.33,30.33,0,0,1-30.24-30.25h0A30.33,30.33,0,0,1,55.3,237.68H285.2a30.09,30.09,0,0,0,30-30h0a30.09,30.09,0,0,0-30-30h-3.57a31.28,31.28,0,0,1-31.18-31.19h0a31.27,31.27,0,0,1,31.18-31.18h59.51a12.18,12.18,0,0,0,12.14-12.14h0A12.18,12.18,0,0,0,341.14,91H293.36A8.4,8.4,0,0,1,285,82.66h0a8.4,8.4,0,0,1,8.38-8.38h86.92a13.21,13.21,0,0,0,13.17-13.17h0a13.21,13.21,0,0,0-13.17-13.17H306.15a8.4,8.4,0,0,1-8.38-8.38h0a8.4,8.4,0,0,1,8.38-8.38H462.82a6.44,6.44,0,0,1,6.42,6.43h0A6.44,6.44,0,0,1,462.82,44h-12.4a10.12,10.12,0,0,0-10.09,10.09h0a10.12,10.12,0,0,0,10.09,10.09h62.14A6.44,6.44,0,0,1,519,70.63h0a6.44,6.44,0,0,1-6.42,6.42H485.71a9.33,9.33,0,0,0-9.3,9.3h0a9.33,9.33,0,0,0,9.3,9.3h26.92a24,24,0,0,1,23.9,23.9h0a24,24,0,0,1-23.9,23.9H491.37a23.05,23.05,0,0,0-23,23h0a23,23,0,0,0,23,23,54.53,54.53,0,0,1,54.36,54.37h0a54.53,54.53,0,0,1-54.36,54.37ZM284.71,47.94a8.38,8.38,0,1,0-8.38-8.38,8.38,8.38,0,0,0,8.38,8.38ZM537,70.63a6.42,6.42,0,1,0-6.42,6.42A6.41,6.41,0,0,0,537,70.63Z" transform="translate(-20.98 -31.18)"/><path class="cls-2" d="M470,161.89h0a1,1,0,0,0,.22.57.94.94,0,0,0,.54.34c31.2,7.23,48.89-9.18,58.81-27.57,9.81-18.19,12-38.31,12.07-39.25v-.07a1,1,0,0,0-.23-.72.94.94,0,0,0-.67-.35h0q-3.62-.33-7.28-.36c-2.4,0-4.8,0-7.18.23A74.6,74.6,0,0,0,505.8,99a56.84,56.84,0,0,0-16.64,9.43A50.08,50.08,0,0,0,476,125.19,62.19,62.19,0,0,0,470,147.33q-.3,3.42-.32,7.09c0,2.42.08,4.9.27,7.47Zm70.55-65.47c-.14,1.22-.56,4.35-1.44,8.63-2.68-.86-8.63-2-11.25-2.43a103.94,103.94,0,0,1,12.69-6.2ZM538.9,106c-.63,2.94-1.48,6.35-2.59,10l-20.88-5.49c4-2.84,7.78-5.21,11.13-7.15,1.19.21,9.24,1.61,12.33,2.62ZM536,116.91a106.16,106.16,0,0,1-5,13c-3.47-1.76-24-8-28.24-9.34a144.42,144.42,0,0,1,11.6-9.32l21.6,5.68Zm-5.36,13.84c-.63,1.33-1.3,2.67-2,4a73.06,73.06,0,0,1-3.81,6.32l-.11-.05-32.18-10.27c3.12-3.44,6.3-6.58,9.46-9.45,2.56.78,25.17,7.67,28.66,9.46Zm-6.38,11.12a59.55,59.55,0,0,1-7.2,8.61.41.41,0,0,0-.2-.12c-.08,0-26.93-8.38-32.18-10.15,2.32-3.08,4.71-6,7.14-8.7l32.44,10.36Zm-7.94,9.32a46.27,46.27,0,0,1-10,7.2.44.44,0,0,0-.29-.22c-.06,0-21.39-5.56-27.73-8.69q2.77-4.46,5.77-8.47c4.24,1.46,29.38,9.29,32.23,10.18Zm-11.06,7.75a42.43,42.43,0,0,1-10.08,3.52.48.48,0,0,0-.41-.35c-7.05-.72-18-4.9-20.4-5.86,1.11-2.05,2.26-4,3.44-6,5.78,2.89,24,7.76,27.45,8.65Zm-12.16,3.92a56.25,56.25,0,0,1-21.62-1q1.19-2.46,2.44-4.82c2.08.82,12,4.64,19.18,5.77Zm-22.18-2q-.21-3.34-.2-6.46,0-3.63.32-7l.09-1a59.83,59.83,0,0,0,2,10c-.77,1.45-1.53,2.92-2.26,4.43Zm.5-16.88A63.86,63.86,0,0,1,474,132.72a93.11,93.11,0,0,0,3.14,16.88c-1.14,1.84-2.24,3.74-3.32,5.7a78.82,78.82,0,0,1-2-10.88.49.49,0,0,0-.42-.42Zm3.1-12.86a53.4,53.4,0,0,1,2.33-5.5c.7-1.44,1.46-2.81,2.27-4.13.46,7.33,3.7,17.19,4.26,18.85-1.91,2.59-3.78,5.3-5.58,8.15a91,91,0,0,1-3-16.95.48.48,0,0,0-.32-.42Zm5.3-10.73a49.15,49.15,0,0,1,6.28-7.81,51.26,51.26,0,0,0,5,18.28c-2.4,2.68-4.75,5.52-7,8.55-.93-2.82-3.79-12-4-18.64a.5.5,0,0,0-.22-.38Zm7.08-8.59q1.4-1.35,2.88-2.58a53.79,53.79,0,0,1,7.49-5.15c.25,1.47,2.1,12.23,4,16.55-3.16,2.87-6.35,6-9.48,9.47-4.69-10.1-4.77-17.94-4.77-18a.52.52,0,0,0-.14-.32Zm11.23-8.21a59.47,59.47,0,0,1,8-3.62,64,64,0,0,1,6.3-2,54.45,54.45,0,0,0,1.34,12.5A146,146,0,0,0,502.07,120c-2-4.7-3.85-16.16-3.86-16.19a.43.43,0,0,0,0-.16Zm15.24-5.84a77,77,0,0,1,12.43-2,34.41,34.41,0,0,0,.14,6.83c-3.41,2-7.26,4.4-11.33,7.3a52.93,52.93,0,0,1-1.22-12,.5.5,0,0,0,0-.12Zm20.06-2.26c2,0,4.09.11,6.12.27a111.94,111.94,0,0,0-12.72,6.31,33.2,33.2,0,0,1-.07-6.31v-.07C529,95.56,531.24,95.49,533.46,95.51Z" transform="translate(-20.98 -31.18)"/><path class="cls-3" d="M480.43,114.64a35.64,35.64,0,0,1,5.24-13.9c6.17-10.08,9.13-21.19,3.7-24.66-5.24-3.34-14,11-14.25,37.53l5.29,1Z" transform="translate(-20.98 -31.18)"/><path class="cls-4" d="M488.09,79.12a.4.4,0,0,0-.06-.56.39.39,0,0,0-.56.06,26.55,26.55,0,0,0-2,2.92l.22-2.29a.28.28,0,0,0-.24-.3.27.27,0,0,0-.29.24l-.33,3.41c-.53.91-1.11,2-1.7,3.17L482.9,83a.27.27,0,0,0-.28-.25.28.28,0,0,0-.25.29l.27,3.71c-.59,1.27-1.19,2.67-1.76,4.22l-.26-2.4a.27.27,0,0,0-.29-.23.26.26,0,0,0-.24.29l.38,3.5c-.56,1.64-1.09,3.41-1.56,5.33l-.5-2.26a.27.27,0,1,0-.52.12l.75,3.35c-.4,1.82-.74,3.75-1,5.79l-.59-1.24a.27.27,0,0,0-.35-.13.27.27,0,0,0-.13.36l1,2c-.16,1.57-.28,3.2-.32,4.89l-.63-1.22a.27.27,0,0,0-.36-.11.28.28,0,0,0-.12.36l1.09,2.09c0,.83,0,1.68,0,2.54l.81.16q0-1.31,0-2.55a9.58,9.58,0,0,1,2.26-1.91.27.27,0,0,0,.14-.35.26.26,0,0,0-.35-.14,8.24,8.24,0,0,0-2,1.62c0-.65,0-1.3.06-1.93A11.16,11.16,0,0,1,481,107a.28.28,0,0,0,.15-.35.27.27,0,0,0-.34-.15,10.5,10.5,0,0,0-2.67,1.67c.08-1.3.19-2.57.34-3.79a25.59,25.59,0,0,1,5-2.13.27.27,0,0,0,.21-.32.26.26,0,0,0-.31-.21,24.31,24.31,0,0,0-4.79,2c.17-1.3.38-2.55.62-3.76a24.8,24.8,0,0,1,6-2.46.26.26,0,0,0,.21-.31A.27.27,0,0,0,485,97a23.85,23.85,0,0,0-5.71,2.3q.18-.89.39-1.74a25.85,25.85,0,0,1,7.1-3.14.27.27,0,0,0-.13-.52,27,27,0,0,0-6.79,2.91c.53-2,1.13-3.92,1.76-5.63a53.89,53.89,0,0,1,8-2.13.27.27,0,0,0,.23-.3.26.26,0,0,0-.3-.23,50.74,50.74,0,0,0-7.64,2c.49-1.27,1-2.44,1.49-3.5,1.12-.27,5.28-1.23,6.31-1.4a.27.27,0,0,0,.22-.31.28.28,0,0,0-.31-.22c-.94.16-4.43,1-5.93,1.31.67-1.38,1.32-2.58,1.91-3.58,1.08-.18,3.67-.6,4.33-.67a.27.27,0,0,0,.24-.29.27.27,0,0,0-.29-.24c-.59.06-2.69.4-3.92.6A29.49,29.49,0,0,1,488.09,79.12Z" transform="translate(-20.98 -31.18)"/><path class="cls-4" d="M468.56,152.61c2.25-5.4,7.4-14.68,18.77-25.25,18-16.71,30.11-36.37,21.2-44.6-8.74-8.07-35,16.67-50.35,67.84A56.23,56.23,0,0,0,468.56,152.61Z" transform="translate(-20.98 -31.18)"/><path class="cls-5" d="M463.65,149.27a12.69,12.69,0,0,1,4.18-.3.28.28,0,0,0,.29-.25.27.27,0,0,0-.25-.28,13.62,13.62,0,0,0-4,.24c.28-.85.57-1.69.86-2.52.9-.21,3.82-.89,4.94-1.07a.26.26,0,0,0,.22-.3.25.25,0,0,0-.3-.22c-1,.15-3.51.72-4.65,1,.54-1.54,1.1-3.05,1.66-4.52a63.43,63.43,0,0,1,6.73-.91.27.27,0,0,0,.25-.28.27.27,0,0,0-.29-.25,62.53,62.53,0,0,0-6.47.85c.57-1.48,1.14-2.92,1.73-4.32a87.38,87.38,0,0,1,9.61-1.3.26.26,0,0,0,.25-.28.27.27,0,0,0-.29-.25,90.82,90.82,0,0,0-9.33,1.23c.77-1.83,1.55-3.61,2.33-5.32a35.23,35.23,0,0,1,10.65-1.14.25.25,0,0,0,.29-.23.27.27,0,0,0-.24-.3,34.52,34.52,0,0,0-10.41,1.05q1.46-3.14,2.93-6c1.74-.26,8.78-1.21,12.5.4a.26.26,0,0,0,.35-.14.26.26,0,0,0-.14-.35c-3.61-1.56-10.14-.82-12.4-.49q1.58-3,3.17-5.74a56.07,56.07,0,0,1,12.3,1.62.27.27,0,0,0,.33-.19.28.28,0,0,0-.19-.33,55.37,55.37,0,0,0-12.14-1.62c.63-1.07,1.26-2.1,1.88-3.1a60.28,60.28,0,0,1,14.09,1.92.27.27,0,0,0,.13-.52,61.81,61.81,0,0,0-13.88-1.93q2.24-3.53,4.43-6.5c1.63.18,9.88,1.15,14.47,2.87a.26.26,0,0,0,.34-.16.27.27,0,0,0-.15-.34c-4.42-1.65-12.11-2.62-14.29-2.87.85-1.14,1.69-2.23,2.52-3.26a79.34,79.34,0,0,1,13.92,3,.27.27,0,0,0,.34-.17.28.28,0,0,0-.18-.34,79.57,79.57,0,0,0-13.68-3c1.94-2.38,3.81-4.44,5.56-6.22A48.2,48.2,0,0,1,506,98a.26.26,0,0,0,.33-.17.27.27,0,0,0-.17-.34,47.69,47.69,0,0,0-12-1.87c.73-.73,1.43-1.4,2.11-2a40.86,40.86,0,0,1,10.43.42.27.27,0,0,0,.31-.23.27.27,0,0,0-.22-.3,44.09,44.09,0,0,0-9.87-.49,43.48,43.48,0,0,1,9.23-6.71.4.4,0,0,0,.18-.54.39.39,0,0,0-.53-.18,31.32,31.32,0,0,0-4.35,2.72,24.84,24.84,0,0,1,1.72-3.11.27.27,0,0,0-.36-.39,31.79,31.79,0,0,0-2.29,4.2c-1.09.82-2.31,1.81-3.65,3l1.5-5.68a.28.28,0,0,0-.19-.33.27.27,0,0,0-.33.19l-1.7,6.47c-.91.83-1.87,1.75-2.87,2.75l1.49-6.68a.26.26,0,0,0-.2-.31.26.26,0,0,0-.32.2l-1.68,7.52c-1.49,1.54-3.06,3.27-4.68,5.23l1.08-6.82a.27.27,0,0,0-.23-.3.25.25,0,0,0-.3.22l-1.22,7.73c-.74.91-1.49,1.86-2.24,2.86l.84-6.12a.27.27,0,0,0-.53-.07l-1,7.08q-2.1,2.83-4.24,6.15l.37-5.87a.27.27,0,0,0-.25-.29.28.28,0,0,0-.29.25l-.42,6.84c-.56.9-1.13,1.82-1.69,2.76l0-4.42a.26.26,0,0,0-.27-.26.27.27,0,0,0-.26.27l0,5.3c-1,1.79-2.09,3.66-3.13,5.64l-.19-4.9a.27.27,0,0,0-.54,0l.24,5.82q-1.37,2.63-2.7,5.48l-.36-4.31a.27.27,0,0,0-.29-.24.27.27,0,0,0-.25.29l.45,5.24c-.78,1.68-1.54,3.42-2.3,5.23l-.78-3.8a.27.27,0,0,0-.32-.21.27.27,0,0,0-.2.32l.93,4.56q-.82,2-1.62,4.05l-1.09-3.14a.27.27,0,0,0-.51.17l1.3,3.75c-.49,1.28-1,2.59-1.45,3.92l-.82-2a.26.26,0,0,0-.35-.15.27.27,0,0,0-.15.35l1,2.56c-.35,1-.7,2-1,3.07l-1.23-1.53a.27.27,0,0,0-.42.33l1.45,1.8c-.29.85-.57,1.71-.84,2.59l.79.17C463.11,150.91,463.38,150.09,463.65,149.27Z" transform="translate(-20.98 -31.18)"/><path class="cls-3" d="M252.8,123.2A35.53,35.53,0,0,0,248,109.14c-5.83-10.29-8.42-21.49-2.87-24.77,5.34-3.16,13.61,11.42,13,38l-5.32.85Z" transform="translate(-20.98 -31.18)"/><path class="cls-4" d="M246.33,87.45a.39.39,0,0,1,.07-.56A.4.4,0,0,1,247,87a28.36,28.36,0,0,1,1.94,3l-.15-2.3a.27.27,0,1,1,.53,0L249.5,91c.5.92,1,2,1.59,3.22l.29-2.76a.26.26,0,0,1,.29-.23.26.26,0,0,1,.24.29l-.39,3.7c.55,1.28,1.1,2.71,1.62,4.27l.34-2.38a.26.26,0,0,1,.3-.23.28.28,0,0,1,.23.3l-.5,3.48c.51,1.66,1,3.45,1.37,5.38l.58-2.24a.28.28,0,0,1,.33-.19.27.27,0,0,1,.19.33l-.86,3.32c.34,1.83.61,3.77.79,5.82l.62-1.21a.26.26,0,0,1,.36-.12.27.27,0,0,1,.12.36l-1,2q.17,2.35.15,4.89l.67-1.19a.27.27,0,0,1,.37-.1.26.26,0,0,1,.1.36l-1.16,2.05c0,.84-.06,1.68-.11,2.54l-.82.13c.06-.86.1-1.71.12-2.54a9.58,9.58,0,0,0-2.2-2,.27.27,0,0,1-.13-.35.26.26,0,0,1,.36-.13,8.45,8.45,0,0,1,2,1.69c0-.65,0-1.3,0-1.94a11.52,11.52,0,0,0-2.83-2,.27.27,0,0,1-.15-.35.26.26,0,0,1,.35-.14,10.87,10.87,0,0,1,2.62,1.75c0-1.3-.12-2.57-.22-3.79a25.6,25.6,0,0,0-4.91-2.3.27.27,0,0,1-.2-.32.26.26,0,0,1,.32-.2,23.88,23.88,0,0,1,4.72,2.17c-.13-1.31-.29-2.57-.49-3.78a24.52,24.52,0,0,0-5.88-2.66.27.27,0,1,1,.13-.52,23.78,23.78,0,0,1,5.63,2.49c-.1-.6-.21-1.18-.33-1.75a25.58,25.58,0,0,0-7-3.37.28.28,0,0,1-.19-.34.27.27,0,0,1,.33-.18,26.53,26.53,0,0,1,6.69,3.14c-.46-2.06-1-4-1.57-5.69a54.55,54.55,0,0,0-7.87-2.4.27.27,0,0,1-.23-.3.28.28,0,0,1,.31-.23,51.78,51.78,0,0,1,7.57,2.28c-.44-1.29-.91-2.47-1.37-3.55-1.12-.3-5.24-1.4-6.26-1.61a.26.26,0,0,1-.21-.31.27.27,0,0,1,.31-.21c.94.19,4.4,1.11,5.89,1.5-.62-1.4-1.23-2.62-1.79-3.64-1.07-.21-3.65-.72-4.3-.81a.27.27,0,0,1,.06-.53c.59.08,2.67.49,3.9.73A31.09,31.09,0,0,0,246.33,87.45Z" transform="translate(-20.98 -31.18)"/><path class="cls-4" d="M259.25,158.35c-2.07-5.47-6.91-14.92-17.92-25.86-17.41-17.29-28.89-37.35-19.71-45.28,9-7.77,34.44,17.83,48.06,69.47A56,56,0,0,1,259.25,158.35Z" transform="translate(-20.98 -31.18)"/><path class="cls-5" d="M264.27,155.18a12.69,12.69,0,0,0-4.17-.44.28.28,0,0,1-.28-.26.27.27,0,0,1,.25-.28,14.1,14.1,0,0,1,4,.38q-.39-1.29-.78-2.55c-.9-.24-3.79-1-4.9-1.23a.26.26,0,0,1-.21-.31.26.26,0,0,1,.31-.21c1,.19,3.48.84,4.61,1.15-.49-1.57-1-3.09-1.5-4.58a63.14,63.14,0,0,0-6.7-1.13.26.26,0,0,1-.24-.29.26.26,0,0,1,.29-.24,62.85,62.85,0,0,1,6.44,1.07c-.52-1.5-1.05-3-1.58-4.38a86.13,86.13,0,0,0-9.57-1.61.27.27,0,0,1-.23-.3.26.26,0,0,1,.29-.24,87.93,87.93,0,0,1,9.28,1.55c-.71-1.87-1.42-3.66-2.15-5.4-1.24-.36-6.4-1.78-10.6-1.49a.27.27,0,0,1-.29-.25.28.28,0,0,1,.25-.29,34.83,34.83,0,0,1,10.38,1.4c-.9-2.12-1.82-4.15-2.74-6.09-1.73-.33-8.73-1.5-12.5,0a.28.28,0,0,1-.35-.15.27.27,0,0,1,.15-.35c3.67-1.44,10.17-.48,12.41-.08-1-2-2-4-3-5.83a55.32,55.32,0,0,0-12.35,1.2.28.28,0,0,1-.32-.2.27.27,0,0,1,.2-.32,56.34,56.34,0,0,1,12.18-1.22c-.59-1.09-1.18-2.14-1.77-3.16A60.45,60.45,0,0,0,235,120.48a.27.27,0,1,1-.11-.52,61.58,61.58,0,0,1,13.94-1.47c-1.42-2.4-2.83-4.61-4.21-6.64-1.63.12-9.91.82-14.56,2.39a.28.28,0,0,1-.34-.17.27.27,0,0,1,.17-.34c4.46-1.5,12.18-2.21,14.37-2.39-.81-1.17-1.61-2.29-2.41-3.34a77.44,77.44,0,0,0-14,2.53.27.27,0,0,1-.15-.51,79.89,79.89,0,0,1,13.78-2.53c-1.86-2.44-3.66-4.57-5.35-6.4a48.06,48.06,0,0,0-12.43,1.44.26.26,0,0,1-.33-.18.27.27,0,0,1,.18-.33,48,48,0,0,1,12.08-1.47c-.7-.75-1.38-1.44-2-2.09a41.68,41.68,0,0,0-10.45.07.27.27,0,0,1-.3-.23.28.28,0,0,1,.24-.3,43.53,43.53,0,0,1,9.88-.16,43.43,43.43,0,0,0-9-7,.4.4,0,0,1,.38-.71A30.41,30.41,0,0,1,228.55,93a25.47,25.47,0,0,0-1.61-3.17.26.26,0,0,1,0-.38.28.28,0,0,1,.38,0,35.13,35.13,0,0,1,2.14,4.27c1.06.86,2.25,1.89,3.55,3.12L231.7,91.1a.27.27,0,0,1,.2-.32.25.25,0,0,1,.32.2l1.49,6.52c.88.86,1.81,1.8,2.78,2.84l-1.27-6.72a.26.26,0,1,1,.52-.1l1.43,7.57c1.44,1.59,3,3.38,4.5,5.39l-.84-6.85a.26.26,0,0,1,.23-.3.27.27,0,0,1,.3.23l1,7.76c.7.94,1.42,1.92,2.14,2.94l-.64-6.14a.26.26,0,0,1,.24-.29.25.25,0,0,1,.29.23l.74,7.11c1.33,1.94,2.68,4,4,6.3l-.17-5.89a.28.28,0,0,1,.26-.28.28.28,0,0,1,.28.26l.19,6.85c.53.91,1.07,1.85,1.6,2.82l.18-4.42a.27.27,0,0,1,.54,0l-.22,5.31q1.47,2.72,2.93,5.73l.36-4.88a.27.27,0,0,1,.54,0l-.43,5.8c.85,1.78,1.68,3.64,2.51,5.58l.51-4.3a.27.27,0,0,1,.3-.23.26.26,0,0,1,.23.29l-.62,5.23c.72,1.71,1.43,3.47,2.13,5.3l.9-3.77a.26.26,0,0,1,.32-.19.25.25,0,0,1,.2.32l-1.08,4.53c.5,1.33,1,2.7,1.48,4.1l1.2-3.11a.26.26,0,0,1,.34-.15.27.27,0,0,1,.16.34l-1.43,3.7c.45,1.3.89,2.62,1.32,4l.89-2a.26.26,0,0,1,.35-.14.27.27,0,0,1,.14.36l-1.13,2.52c.32,1,.63,2,1,3.1l1.28-1.49a.26.26,0,0,1,.37,0,.25.25,0,0,1,0,.37l-1.5,1.75.75,2.61-.79.15C264.75,156.84,264.51,156,264.27,155.18Z" transform="translate(-20.98 -31.18)"/><path class="cls-2" d="M230.66,223.83h0a1,1,0,0,1-.31.53,1,1,0,0,1-.6.24c-32,1.64-46.52-17.62-53.05-37.47-6.46-19.62-5.06-39.81-5-40.76v-.07a1,1,0,0,1,.35-.67,1,1,0,0,1,.73-.23h0q3.61.32,7.22.92c2.37.4,4.72.89,7,1.48a75.19,75.19,0,0,1,19.41,7.84,57.19,57.19,0,0,1,14.72,12.21,50,50,0,0,1,10.06,18.79,62.44,62.44,0,0,1,1.94,22.84q-.3,3.42-.93,7t-1.57,7.3Zm-58-76.84c-.07,1.24-.21,4.39-.09,8.75,2.78-.37,8.83-.41,11.5-.41A104.71,104.71,0,0,0,172.69,147Zm-.06,9.71c.11,3,.34,6.51.79,10.32l21.52-1.74c-3.45-3.5-6.74-6.5-9.7-9-1.21,0-9.38,0-12.6.42Zm.9,11.26a107.86,107.86,0,0,0,2.61,13.65c3.72-1.12,25-3.71,29.44-4.24a146,146,0,0,0-9.78-11.21L173.53,168Zm2.85,14.56q.59,2.14,1.29,4.29c.76,2.31,1.64,4.62,2.64,6.89a.53.53,0,0,1,.12,0l33.48-4.46c-2.47-3.94-5-7.59-7.65-11-2.66.32-26.13,3.13-29.88,4.28Zm4.33,12.07a59.65,59.65,0,0,0,5.58,9.74.49.49,0,0,1,.21-.08c.09,0,28-3.52,33.46-4.34q-2.61-5.17-5.5-9.82l-33.75,4.5Zm6.19,10.57a46.11,46.11,0,0,0,8.55,8.84.48.48,0,0,1,.32-.17c.07,0,22-1.71,28.84-3.68q-2-4.86-4.2-9.35c-4.44.69-30.56,4-33.51,4.36Zm9.52,9.58a43,43,0,0,0,9.3,5.23.5.5,0,0,1,.47-.27c7.07.53,18.54-1.68,21.11-2.2-.73-2.2-1.52-4.36-2.34-6.46-6.2,1.83-25,3.41-28.54,3.7Zm11.29,6a55.87,55.87,0,0,0,21.44,2.87c-.49-1.76-1-3.48-1.55-5.18-2.19.45-12.59,2.47-19.89,2.31Zm22.17,1.95c.53-2.17,1-4.27,1.33-6.32.42-2.39.72-4.7.92-6.95,0-.33.05-.65.08-1a58.81,58.81,0,0,1-3.77,9.48c.5,1.56,1,3.15,1.44,4.76ZM232.35,206a63.64,63.64,0,0,0-.53-11.54,92.54,92.54,0,0,1-6.06,16.06c.8,2,1.55,4.08,2.27,6.19a78.75,78.75,0,0,0,3.84-10.36.48.48,0,0,1,.48-.35Zm-.79-13.19a52.23,52.23,0,0,0-1.33-5.83c-.44-1.54-.94-3-1.51-4.47-1.73,7.14-6.66,16.28-7.5,17.81q2.15,4.32,4.06,9a90.58,90.58,0,0,0,5.89-16.16.47.47,0,0,1,.39-.35Zm-3.33-11.5a49.27,49.27,0,0,0-4.81-8.79,51.26,51.26,0,0,1-8.15,17.11c1.88,3.06,3.7,6.27,5.43,9.66,1.4-2.62,5.83-11.16,7.24-17.64a.48.48,0,0,1,.29-.34Zm-5.46-9.7c-.76-1-1.56-2.06-2.39-3a52.77,52.77,0,0,0-6.47-6.39c-.5,1.4-4.21,11.66-6.86,15.58,2.61,3.39,5.2,7.05,7.67,11,6.39-9.13,7.85-16.83,7.86-16.86a.44.44,0,0,1,.19-.29Zm-9.62-10a59.39,59.39,0,0,0-7.23-5q-2.85-1.66-5.87-3a53.18,53.18,0,0,1-3.51,12.07,146.28,146.28,0,0,1,9.89,11.37c2.76-4.29,6.63-15.24,6.64-15.27a.64.64,0,0,1,.08-.14Zm-14-8.43A77.29,77.29,0,0,0,187.29,149a35.62,35.62,0,0,1-1.33,6.7c3,2.54,6.36,5.6,9.86,9.18a54.15,54.15,0,0,0,3.32-11.62.21.21,0,0,1,0-.12Zm-19.34-5.74q-3-.53-6.08-.82A110.91,110.91,0,0,1,185.17,155a34.64,34.64,0,0,0,1.18-6.2.17.17,0,0,1,0-.07C184.19,148.17,182,147.71,179.83,147.35Z" transform="translate(-20.98 -31.18)"/><path class="cls-6" d="M237,116.67V231.36h10V116.67a1.3,1.3,0,0,0-.13-.6c-1-2-3.58-8.41-4.52-9.59a.48.48,0,0,0-.36-.19.51.51,0,0,0-.37.19c-.93,1.18-3.54,7.63-4.52,9.59A1.3,1.3,0,0,0,237,116.67Z" transform="translate(-20.98 -31.18)"/><path class="cls-7" d="M237,116.67V231.36h3.35V108.92c-1.14,2.42-2.55,5.82-3.22,7.15A1.3,1.3,0,0,0,237,116.67Z" transform="translate(-20.98 -31.18)"/><path class="cls-8" d="M237,231.36V238a5,5,0,1,0,10,0v-6.64Z" transform="translate(-20.98 -31.18)"/><path class="cls-9" d="M247,116.18a.54.54,0,0,0-.05-.11c-.78-1.56-2.59-6-3.77-8.29a8.59,8.59,0,0,0-.75-1.3.48.48,0,0,0-.36-.19.51.51,0,0,0-.37.19c-.93,1.18-3.54,7.63-4.52,9.59l3.22,1.75h3.34Z" transform="translate(-20.98 -31.18)"/><path class="cls-8" d="M242,106.29a.51.51,0,0,0-.37.19c-.93,1.18-3.54,7.63-4.52,9.59l3.22,1.75H242Z" transform="translate(-20.98 -31.18)"/><path class="cls-10" d="M242.4,106.48a.48.48,0,0,0-.36-.19.51.51,0,0,0-.37.19l-1.3,11.34h3.34Z" transform="translate(-20.98 -31.18)"/><rect class="cls-11" x="219.39" y="86.63" width="3.34" height="115.16"/><path class="cls-5" d="M237,232.92l3.35,1.82h3.34l3.34-1.68v-3.7a1.4,1.4,0,0,0-.08-.48l-3.26,1.63h-3.34l-3.22-1.75c-.24-.13-.13.47-.13.6Z" transform="translate(-20.98 -31.18)"/><path class="cls-12" d="M243.92,109.38a.53.53,0,0,0-.45-.27c-.33,0-.62.31-.66,1a1.39,1.39,0,0,1-.77,1.13,1.41,1.41,0,0,1-.78-1.13c0-.65-.32-1-.66-1a.53.53,0,0,0-.45.27c.27-.59.54-1.14.77-1.6a8.59,8.59,0,0,1,.75-1.3.5.5,0,0,1,.37-.19h0a.48.48,0,0,1,.36.19,8.59,8.59,0,0,1,.75,1.3C243.39,108.24,243.65,108.79,243.92,109.38Z" transform="translate(-20.98 -31.18)"/><path class="cls-6" d="M223.6,158.75v134.3h11.73V158.75a1.4,1.4,0,0,0-.15-.7c-1.14-2.29-4.19-9.85-5.29-11.23a.52.52,0,0,0-.85,0c-1.1,1.38-4.15,8.94-5.29,11.23A1.4,1.4,0,0,0,223.6,158.75Z" transform="translate(-20.98 -31.18)"/><path class="cls-7" d="M223.6,158.75v134.3h3.91V149.68c-1.33,2.83-3,6.81-3.76,8.37A1.4,1.4,0,0,0,223.6,158.75Z" transform="translate(-20.98 -31.18)"/><path class="cls-8" d="M223.6,293.05v7.78a5.87,5.87,0,0,0,11.73,0v-7.78Z" transform="translate(-20.98 -31.18)"/><path class="cls-9" d="M235.24,158.18l-.06-.13c-.91-1.82-3-7-4.41-9.71a10.17,10.17,0,0,0-.88-1.52.52.52,0,0,0-.85,0c-1.1,1.38-4.15,8.94-5.29,11.23l3.76,2h3.91Z" transform="translate(-20.98 -31.18)"/><path class="cls-8" d="M229.46,146.6a.55.55,0,0,0-.42.22c-1.1,1.38-4.15,8.94-5.29,11.23l3.76,2h2Z" transform="translate(-20.98 -31.18)"/><path class="cls-10" d="M229.89,146.82a.52.52,0,0,0-.85,0l-1.53,13.27h3.91Z" transform="translate(-20.98 -31.18)"/><rect class="cls-11" x="206.53" y="128.91" width="3.91" height="134.85"/><path class="cls-5" d="M223.6,294.87l3.91,2.13h3.91l3.91-2v-4.33a1.5,1.5,0,0,0-.09-.57l-3.82,1.91h-3.91l-3.76-2c-.28-.16-.15.54-.15.7Z" transform="translate(-20.98 -31.18)"/><path class="cls-12" d="M231.67,150.22a.6.6,0,0,0-.53-.32c-.39,0-.72.37-.77,1.12a1,1,0,1,1-1.81,0c-.05-.75-.38-1.14-.77-1.12a.6.6,0,0,0-.53.32c.32-.69.62-1.34.9-1.88a10.17,10.17,0,0,1,.88-1.52.55.55,0,0,1,.42-.22h0a.55.55,0,0,1,.43.22,10.17,10.17,0,0,1,.88,1.52C231.05,148.88,231.35,149.53,231.67,150.22Z" transform="translate(-20.98 -31.18)"/><rect class="cls-13" x="188.76" y="150.32" width="11.74" height="52.29"/><rect class="cls-14" x="196.58" y="150.32" width="3.91" height="52.29"/><path class="cls-8" d="M221.47,181.51v-7.78a5.87,5.87,0,0,0-11.74,0v7.78Z" transform="translate(-20.98 -31.18)"/><rect class="cls-11" x="192.67" y="148.43" width="3.91" height="54.19"/><path class="cls-5" d="M221.47,179.69l-3.91-2.14h-3.92l-3.91,2v4.33a1.54,1.54,0,0,0,.1.57l3.81-1.92h3.92l3.76,2.05c.28.15.15-.55.15-.7Z" transform="translate(-20.98 -31.18)"/><path class="cls-4" d="M234.53,295.43a143,143,0,0,0-.09-23.1c-2.5-28.06-14-48.09-30.21-61.49S167,190.67,145.44,189.09a141.53,141.53,0,0,0-22.93.21.77.77,0,0,0-.7.82.2.2,0,0,1,0,.07c.23,2.16,13.53,128.81,112.12,106A.76.76,0,0,0,234.53,295.43Z" transform="translate(-20.98 -31.18)"/><path class="cls-5" d="M126.64,193.13a.71.71,0,1,0-.5,1.32,151.46,151.46,0,0,1,19.28,9.38c-3.94.71-12.94,2.38-16.85,3.65a.71.71,0,0,0,.44,1.35c4.59-1.5,16.55-3.59,18.34-3.9,5,2.89,10.58,6.41,16.54,10.64l-31.06,8.17a.7.7,0,0,0-.51.86.72.72,0,0,0,.87.51l32.19-8.47a213.93,213.93,0,0,1,17.24,13.85c-6.39,1.95-37,11.34-42,13.91a.71.71,0,0,0,.64,1.26c5.17-2.66,38.82-12.91,42.62-14.07,4.7,4.27,9.42,8.94,14.06,14l-47.84,15.28a.7.7,0,0,0-.46.89.71.71,0,0,0,.89.46L199,246.8c3.61,4,7.16,8.34,10.61,12.92-7.79,2.64-47.73,15.06-47.85,15.1a.71.71,0,0,0,.42,1.35c.12,0,41.63-12.95,48.32-15.26q4.43,6,8.58,12.6c-9.44,4.66-41.15,12.89-41.25,12.92a.71.71,0,0,0,.36,1.37c.09,0,32.15-8.35,41.64-13.08q2.63,4.29,5.11,8.85c-3.62,1.43-19.85,7.66-30.33,8.73a.7.7,0,0,0-.63.77.72.72,0,0,0,.77.64c10.81-1.11,27.54-7.57,30.86-8.89q1.92,3.6,3.72,7.37a.72.72,0,0,0,.95.33.7.7,0,0,0,.33-.94c-1.25-2.63-2.56-5.2-3.9-7.7,2.09-5.8,3.4-17.7,3.41-17.74a.71.71,0,0,0-1.41-.15s-1.13,10.24-2.92,16.18q-2.4-4.37-4.94-8.48A137.11,137.11,0,0,0,225.61,247a.71.71,0,0,0-.66-.75.69.69,0,0,0-.75.65,136.28,136.28,0,0,1-4.41,25.21q-4-6.36-8.3-12.12c.86-2.54,6-18.06,6.39-29a.71.71,0,0,0-1.42-.06c-.37,9.87-4.62,23.52-6,27.72-3.4-4.5-6.91-8.74-10.46-12.71,7.34-15.57,7.48-27.8,7.48-27.84a.71.71,0,0,0-1.42,0s-.13,11.7-7.09,26.73c-4.66-5.13-9.4-9.82-14.11-14.1,3.06-6.89,6-24.8,6-24.85a.7.7,0,0,0-.58-.81.7.7,0,0,0-.81.58c0,.05-2.82,17.09-5.74,24.08a213.75,213.75,0,0,0-17.45-14.05,80.16,80.16,0,0,0,2-18.8.71.71,0,0,0-1.41,0,79.76,79.76,0,0,1-1.81,17.88c-6.07-4.32-11.78-7.92-16.85-10.87a51.13,51.13,0,0,0,.19-10.27.71.71,0,1,0-1.41.13,50.09,50.09,0,0,1-.11,9.38A152.23,152.23,0,0,0,126.64,193.13Z" transform="translate(-20.98 -31.18)"/><path class="cls-15" d="M234,271.38h15.71s6.61-1,7.78-6.47,6.22-58,6.22-58l-3.63-3.63L234,200.1l-26.09,3.22L204.31,207s5.05,52.46,6.22,58,7.78,6.47,7.78,6.47Z" transform="translate(-20.98 -31.18)"/><path class="cls-16" d="M234,271.38h1.89c1.2-9.48,3.36-30.81,4.6-43.53,1-10.74-2.7-14.09-11.63-13.74H205c1.43,14.56,4.62,46.57,5.52,50.8,1.17,5.51,7.78,6.47,7.78,6.47Z" transform="translate(-20.98 -31.18)"/><path class="cls-17" d="M263.74,193.26H204.31a6.86,6.86,0,0,0-6.84,6.84h0a6.86,6.86,0,0,0,6.84,6.85h59.43a6.86,6.86,0,0,0,6.84-6.85h0A6.86,6.86,0,0,0,263.74,193.26Z" transform="translate(-20.98 -31.18)"/><path class="cls-18" d="M276.33,242.62s6.17,1.38,6.17,7v40.44s0,8.06-10.45,8.06H151.5c-4.41,0-8.06-2.65-8.06-7.43V278.39a1.91,1.91,0,0,1,1.89-1.82s2.77-12.07,18.51-12.07h7.43s59.08-25.69,62.73-27.33,9.2,4,13.35,12,13.86,9.57,19.4,3.14S271.73,241.7,276.33,242.62Z" transform="translate(-20.98 -31.18)"/><path class="cls-19" d="M146.84,273.08c2.1-3.57,6.86-8.58,17-8.58h7.43s59.08-25.69,62.73-27.33,9.2,4,13.35,12a16.23,16.23,0,0,0,1.12,1.81h0c0,6.47,10.85,12.36-68.95,19.32C165.85,271.46,155.16,272.38,146.84,273.08Z" transform="translate(-20.98 -31.18)"/><path class="cls-20" d="M143.44,288.34v-9.95a1.91,1.91,0,0,1,1.89-1.82s2.77-12.07,18.51-12.07h7.43s12.22,0,12.22,11.21C183.49,283.79,157.8,287.12,143.44,288.34Z" transform="translate(-20.98 -31.18)"/><path class="cls-5" d="M146.51,273.66c1.91-3.57,6.61-9.16,17.33-9.16h7.43a16.34,16.34,0,0,1,5.3,1.07v3.72a4.38,4.38,0,0,1-4.37,4.37Z" transform="translate(-20.98 -31.18)"/><path class="cls-20" d="M282.5,283v7.12h0c0,.25-.16,8.06-10.45,8.06H151.5c-4.41,0-8.06-2.65-8.06-7.43V278.39a1.91,1.91,0,0,1,1.89-1.82H276.07A6.44,6.44,0,0,1,282.5,283Z" transform="translate(-20.98 -31.18)"/><path class="cls-5" d="M147.3,276.57h94.79v9.94a6.62,6.62,0,0,1-6.6,6.61H153.91a6.62,6.62,0,0,1-6.61-6.61Z" transform="translate(-20.98 -31.18)"/><path class="cls-21" d="M225.23,238.37c2.41-1.08,5.22,0,8,2.5a39.26,39.26,0,0,1,7.84,10.77c.16.31.33.6.51.9s.36.55.58.85A1.35,1.35,0,0,1,240,255c-.22-.3-.45-.64-.68-1s-.41-.69-.61-1.07a36.63,36.63,0,0,0-7.26-10c-2-1.79-3.82-2.63-5.13-2.05a1.34,1.34,0,1,1-1.1-2.45ZM179.47,258.9c2.05-.92,4.43,0,6.78,2.07a32.3,32.3,0,0,1,6.43,8.82c.13.24.26.48.41.71s.28.43.45.67a1.35,1.35,0,1,1-2.18,1.59c-.18-.25-.37-.53-.56-.85s-.34-.57-.5-.88a29.66,29.66,0,0,0-5.84-8.06c-1.55-1.38-2.94-2.05-3.9-1.61a1.35,1.35,0,0,1-1.09-2.46Zm8.47-4.12a1.35,1.35,0,0,0,1.09,2.46c1.2-.54,2.88.25,4.73,1.9a34.51,34.51,0,0,1,6.78,9.36c.18.35.37.69.57,1s.43.67.64.95a1.35,1.35,0,1,0,2.18-1.58c-.2-.27-.38-.54-.53-.79s-.33-.55-.48-.83a36.94,36.94,0,0,0-7.37-10.12c-2.65-2.38-5.32-3.38-7.61-2.36Zm9.58-3.39c2.17-1,4.68,0,7.18,2.2a34.55,34.55,0,0,1,6.87,9.44c.14.26.29.52.44.77s.31.47.49.73a1.35,1.35,0,1,1-2.18,1.58q-.28-.41-.6-.9c-.18-.3-.36-.61-.53-.94a31.91,31.91,0,0,0-6.29-8.68c-1.68-1.51-3.21-2.23-4.29-1.75a1.34,1.34,0,1,1-1.09-2.45Zm9.7-4.25a1.35,1.35,0,1,0,1.1,2.46c1.2-.53,2.87.25,4.72,1.9a34.24,34.24,0,0,1,6.78,9.36c.19.35.38.69.58,1s.43.67.63,1a1.35,1.35,0,1,0,2.19-1.59c-.2-.27-.38-.54-.54-.78s-.32-.56-.47-.84a37.11,37.11,0,0,0-7.38-10.12c-2.65-2.38-5.32-3.38-7.61-2.36Zm8.47-2.47a1.36,1.36,0,0,0,1.78.68c1.31-.59,3.14.25,5.13,2a36.69,36.69,0,0,1,7.26,10c.2.37.4.72.61,1.06s.46.72.68,1a1.35,1.35,0,0,0,2.18-1.58c-.22-.3-.41-.58-.57-.85s-.36-.59-.52-.9a39.26,39.26,0,0,0-7.84-10.77c-2.8-2.51-5.62-3.58-8-2.5A1.35,1.35,0,0,0,215.69,244.67Z" transform="translate(-20.98 -31.18)"/><rect class="cls-22" x="227.5" y="82.36" width="262.42" height="184.62" rx="7.78"/><rect class="cls-23" x="233.91" y="82.36" width="262.43" height="184.62" rx="7.78"/><rect class="cls-24" x="242.91" y="91.36" width="244.43" height="166.63"/><path class="cls-25" d="M508.31,124H484v-1.41h-1V124H456.85v-1.41h-1V124H429.71v-1.41h-1V124H402.58v-1.41h-1V289.17h1v-1.41H428.7v1.41h1v-1.41h26.12v1.41h1v-1.41H483v1.41h1v-1.41h24.33v-1H484V260.63h24.33v-1H484V233.49h24.33v-1H484V206.36h24.33v-1H484V179.23h24.33v-1H484V152.09h24.33v-1H484V125h24.33v-1ZM402.58,286.75V260.63H428.7v26.12Zm27.13,0V260.63h26.12v26.12Zm27.14,0V260.63H483v26.12ZM402.58,125H428.7v26.12H402.58V125Zm0,27.13H428.7v26.13H402.58V152.09Zm0,27.14H428.7v26.12H402.58V179.23Zm0,27.13H428.7v26.12H402.58V206.36Zm0,27.13H428.7v26.13H402.58V233.49Zm27.13,26.13V233.49h26.12v26.13Zm27.14,0V233.49H483v26.13ZM429.71,125h26.12v26.12H429.71V125Zm0,27.13h26.12v26.13H429.71V152.09Zm0,27.14h26.12v26.12H429.71V179.23Zm0,27.13h26.12v26.12H429.71V206.36Zm27.14,26.12V206.36H483v26.12Zm0-107.52H483v26.12H456.85V125Zm0,27.13H483v26.13H456.85V152.09ZM483,179.23v26.12H456.85V179.23Z" transform="translate(-20.98 -31.18)"/><path class="cls-26" d="M478.74,298.17H391.53a11,11,0,0,1,0-21.92h87.21a11,11,0,0,1,0,21.92Z" transform="translate(-20.98 -31.18)"/><path class="cls-27" d="M380.89,284.59a11,11,0,0,1,10.64-8.34h87.21a11,11,0,0,1,10.64,8.34,11,11,0,0,1-2.9,5.12,10.92,10.92,0,0,1-7.74,3.22H391.53a10.89,10.89,0,0,1-7.74-3.22A11,11,0,0,1,380.89,284.59Z" transform="translate(-20.98 -31.18)"/><path class="cls-5" d="M536.15,297.36H473.26a10.15,10.15,0,0,1,0-20.3h62.89Z" transform="translate(-20.98 -31.18)"/><path class="cls-7" d="M536.81,295.52a1.33,1.33,0,0,1,0,2.65H472.74a11,11,0,0,1,0-21.92h64.07a1.33,1.33,0,0,1,0,2.65H472.74a8.31,8.31,0,0,0,0,16.62Z" transform="translate(-20.98 -31.18)"/><path class="cls-28" d="M536.15,292.57H475.37a6.84,6.84,0,0,1,0-13.67h-2.63a8.3,8.3,0,0,0-6,14l.14.14a8.29,8.29,0,0,0,5.87,2.45h63.41Z" transform="translate(-20.98 -31.18)"/><path class="cls-29" d="M453.08,276.25h64.81a11,11,0,0,0,0-21.92H453.08a11,11,0,0,0,0,21.92Z" transform="translate(-20.98 -31.18)"/><path class="cls-30" d="M528.53,262.67a11.08,11.08,0,0,0-2.9-5.13,11,11,0,0,0-7.74-3.21H453.08a11,11,0,0,0-7.74,3.21,11.08,11.08,0,0,0-2.9,5.13A11,11,0,0,0,453.08,271h64.81a11,11,0,0,0,10.64-8.34Z" transform="translate(-20.98 -31.18)"/><path class="cls-5" d="M404.06,275.44h54.5a10.15,10.15,0,0,0,0-20.3h-54.5Z" transform="translate(-20.98 -31.18)"/><path class="cls-16" d="M403.4,273.59a1.33,1.33,0,0,0,0,2.66h55.67a11,11,0,1,0,0-21.92H403.4a1.33,1.33,0,1,0,0,2.65h55.67a8.31,8.31,0,0,1,0,16.61Z" transform="translate(-20.98 -31.18)"/><path class="cls-28" d="M404.06,270.65h52.39a6.84,6.84,0,0,0,0-13.67h2.62a8.3,8.3,0,0,1,6,14,1.85,1.85,0,0,1-.14.14,8.27,8.27,0,0,1-5.87,2.44h-55Z" transform="translate(-20.98 -31.18)"/><polygon class="cls-3" points="377.85 37.32 387.7 57.92 442.53 20.5 380.2 31.35 377.85 37.32"/><path class="cls-31" d="M408.68,89.1l17.38-11.86c.45-2.1.76-3.57.76-3.57l-19.37,3.79Z" transform="translate(-20.98 -31.18)"/><polygon class="cls-32" points="442.53 20.5 362.13 29.71 377.85 37.32 442.53 20.5"/><polygon class="cls-32" points="442.53 20.5 403.59 65.44 386.47 46.28 442.53 20.5"/><path class="cls-33" d="M326.91,298.17H267.25a3.38,3.38,0,0,1-3.37-3.37h0a3.38,3.38,0,0,1,3.37-3.37h59.66a3.38,3.38,0,0,1,3.36,3.37h0A3.38,3.38,0,0,1,326.91,298.17Z" transform="translate(-20.98 -31.18)"/><path class="cls-34" d="M282.46,298.17H267.25a3.38,3.38,0,0,1-3.37-3.37h0a3.38,3.38,0,0,1,3.37-3.37h15.21a3.38,3.38,0,0,1,3.37,3.37h0A3.38,3.38,0,0,1,282.46,298.17Z" transform="translate(-20.98 -31.18)"/><path class="cls-35" d="M255.32,246.24h41.56a2.51,2.51,0,0,1,2.51,2.51v9a2.51,2.51,0,0,1-2.51,2.51H255.32a2.52,2.52,0,0,1-2.52-2.52v-9a2.51,2.51,0,0,1,2.51-2.51Z"/><path class="cls-25" d="M295.21,277.42h22.65a2.52,2.52,0,0,1,2.51,2.51v8.33H297.72a2.52,2.52,0,0,1-2.51-2.51Z" transform="translate(-20.98 -31.18)"/><path class="cls-36" d="M255.32,246.24h11.79a2.52,2.52,0,0,1,2.52,2.52v9a2.51,2.51,0,0,1-2.51,2.51H255.32a2.51,2.51,0,0,1-2.51-2.51v-9a2.52,2.52,0,0,1,2.52-2.52Z"/><rect class="cls-37" x="272.37" y="104.89" width="64.2" height="48.24" rx="3.66"/><rect class="cls-24" x="273.71" y="103.82" width="64.2" height="48.24" rx="3.66"/><path class="cls-19" d="M298.34,135h56.88a3.67,3.67,0,0,1,3.66,3.66v9.18h-64.2v-9.18A3.67,3.67,0,0,1,298.34,135Z" transform="translate(-20.98 -31.18)"/><path class="cls-5" d="M301.24,142.54a1.12,1.12,0,1,1,1.11-1.12A1.12,1.12,0,0,1,301.24,142.54Z" transform="translate(-20.98 -31.18)"/><path class="cls-5" d="M305.69,142.54a1.12,1.12,0,1,1,1.12-1.12A1.12,1.12,0,0,1,305.69,142.54Z" transform="translate(-20.98 -31.18)"/><path class="cls-5" d="M310.15,142.54a1.12,1.12,0,1,1,1.12-1.12A1.12,1.12,0,0,1,310.15,142.54Z" transform="translate(-20.98 -31.18)"/><path class="cls-4" d="M319.51,159.68a.34.34,0,0,1,0-.67h34.33a.34.34,0,1,1,0,.67Z" transform="translate(-20.98 -31.18)"/><path class="cls-4" d="M319.51,163.87a.34.34,0,0,1,0-.67h34.33a.34.34,0,1,1,0,.67Z" transform="translate(-20.98 -31.18)"/><path class="cls-4" d="M319.51,168.06a.34.34,0,0,1,0-.67h34.33a.34.34,0,1,1,0,.67Z" transform="translate(-20.98 -31.18)"/><path class="cls-4" d="M319.51,172.25a.34.34,0,0,1,0-.67h23.05a.34.34,0,1,1,0,.67Z" transform="translate(-20.98 -31.18)"/><path class="cls-4" d="M319.51,155.49a.34.34,0,0,1,0-.67h34.33a.34.34,0,1,1,0,.67Z" transform="translate(-20.98 -31.18)"/><rect class="cls-38" x="278.25" y="121.4" width="16.94" height="13.13" rx="1.38"/><rect class="cls-39" x="278.25" y="137.03" width="16.94" height="5.97" rx="1.16"/><rect class="cls-37" x="310.21" y="145.54" width="75.79" height="25.49" rx="3.03"/><rect class="cls-24" x="311.02" y="144.66" width="75.79" height="25.49" rx="3.03"/><path class="cls-4" d="M352.57,187a.27.27,0,0,1-.28-.28.28.28,0,0,1,.28-.28h49.82a.28.28,0,0,1,.28.28.27.27,0,0,1-.28.28Z" transform="translate(-20.98 -31.18)"/><path class="cls-4" d="M352.57,190.45a.27.27,0,0,1-.28-.28.28.28,0,0,1,.28-.28h49.82a.28.28,0,0,1,.28.28.27.27,0,0,1-.28.28Z" transform="translate(-20.98 -31.18)"/><path class="cls-4" d="M352.57,193.93a.28.28,0,0,1-.28-.28.27.27,0,0,1,.28-.28h49.82a.27.27,0,0,1,.28.28.28.28,0,0,1-.28.28Z" transform="translate(-20.98 -31.18)"/><path class="cls-4" d="M352.57,197.4a.28.28,0,0,1-.28-.28.27.27,0,0,1,.28-.28H386a.27.27,0,0,1,.28.28.28.28,0,0,1-.28.28Z" transform="translate(-20.98 -31.18)"/><path class="cls-19" d="M335,175.62h69.74a3,3,0,0,1,3,3v4.73H332v-4.73A3,3,0,0,1,335,175.62Z" transform="translate(-20.98 -31.18)"/><path class="cls-5" d="M337.42,180.27a.92.92,0,1,1,.93-.92A.92.92,0,0,1,337.42,180.27Z" transform="translate(-20.98 -31.18)"/><path class="cls-5" d="M341.12,180.27a.92.92,0,1,1,.92-.92A.93.93,0,0,1,341.12,180.27Z" transform="translate(-20.98 -31.18)"/><path class="cls-5" d="M344.81,180.27a.92.92,0,1,1,.92-.92A.92.92,0,0,1,344.81,180.27Z" transform="translate(-20.98 -31.18)"/><rect class="cls-39" x="315.01" y="155.52" width="14.04" height="7.09" rx="0.75"/><rect class="cls-39" x="315.01" y="163.51" width="14.04" height="2.43" rx="0.47"/><path class="cls-37" d="M277.55,169.6H354a4.91,4.91,0,0,1,4.91,4.91v55a4.92,4.92,0,0,1-4.92,4.92H277.55a4.92,4.92,0,0,1-4.92-4.92v-55A4.91,4.91,0,0,1,277.55,169.6Z"/><path class="cls-24" d="M279.35,168.16h76.49a4.91,4.91,0,0,1,4.91,4.91v55a4.92,4.92,0,0,1-4.92,4.92H279.35a4.92,4.92,0,0,1-4.92-4.92v-55a4.92,4.92,0,0,1,4.92-4.92Z"/><path class="cls-19" d="M300.33,199.34h76.49a4.93,4.93,0,0,1,4.91,4.92v12.35H295.41V204.26A4.93,4.93,0,0,1,300.33,199.34Z" transform="translate(-20.98 -31.18)"/><path class="cls-5" d="M304.22,209.47a1.5,1.5,0,1,1,1.5-1.5A1.5,1.5,0,0,1,304.22,209.47Z" transform="translate(-20.98 -31.18)"/><path class="cls-5" d="M310.22,209.47a1.5,1.5,0,1,1,1.5-1.5A1.5,1.5,0,0,1,310.22,209.47Z" transform="translate(-20.98 -31.18)"/><path class="cls-5" d="M316.21,209.47a1.5,1.5,0,1,1,1.5-1.5A1.5,1.5,0,0,1,316.21,209.47Z" transform="translate(-20.98 -31.18)"/><path class="cls-4" d="M328.8,232.53a.46.46,0,0,1-.45-.46.45.45,0,0,1,.45-.45H375a.45.45,0,0,1,.45.45.46.46,0,0,1-.45.46Z" transform="translate(-20.98 -31.18)"/><path class="cls-4" d="M328.8,238.16a.45.45,0,0,1-.45-.45.46.46,0,0,1,.45-.46H375a.46.46,0,0,1,.45.46.45.45,0,0,1-.45.45Z" transform="translate(-20.98 -31.18)"/><path class="cls-4" d="M328.8,243.8a.46.46,0,0,1-.45-.46.45.45,0,0,1,.45-.45H375a.45.45,0,0,1,.45.45.46.46,0,0,1-.45.46Z" transform="translate(-20.98 -31.18)"/><path class="cls-4" d="M328.8,249.43a.45.45,0,0,1,0-.9h31a.45.45,0,1,1,0,.9Z" transform="translate(-20.98 -31.18)"/><path class="cls-4" d="M328.8,226.89a.45.45,0,0,1-.45-.45.46.46,0,0,1,.45-.46H375a.46.46,0,0,1,.45.46.45.45,0,0,1-.45.45Z" transform="translate(-20.98 -31.18)"/><rect class="cls-39" x="280.55" y="191.8" width="22.78" height="17.66" rx="1.86"/><rect class="cls-39" x="280.55" y="212.82" width="22.78" height="8.03" rx="1.56"/><rect class="cls-37" x="250.65" y="164.63" width="46.47" height="34.92" rx="2.65"/><rect class="cls-24" x="251.62" y="163.86" width="46.47" height="34.92" rx="2.65"/><path class="cls-16" d="M275.24,195h41.18a2.65,2.65,0,0,1,2.65,2.65v6.65H272.59v-6.65A2.66,2.66,0,0,1,275.24,195Z" transform="translate(-20.98 -31.18)"/><path class="cls-5" d="M277.34,200.5a.81.81,0,0,1,0-1.62.81.81,0,0,1,0,1.62Z" transform="translate(-20.98 -31.18)"/><path class="cls-5" d="M280.57,200.5a.81.81,0,0,1,0-1.62.81.81,0,0,1,0,1.62Z" transform="translate(-20.98 -31.18)"/><path class="cls-5" d="M283.79,200.5a.81.81,0,1,1,.81-.81A.81.81,0,0,1,283.79,200.5Z" transform="translate(-20.98 -31.18)"/><path class="cls-4" d="M290.57,212.91a.25.25,0,0,1,0-.49h24.85a.25.25,0,1,1,0,.49Z" transform="translate(-20.98 -31.18)"/><path class="cls-4" d="M290.57,215.94a.25.25,0,0,1,0-.49h24.85a.25.25,0,1,1,0,.49Z" transform="translate(-20.98 -31.18)"/><path class="cls-4" d="M290.57,219a.24.24,0,0,1-.24-.24.24.24,0,0,1,.24-.24h24.85a.25.25,0,0,1,.25.24.24.24,0,0,1-.25.24Z" transform="translate(-20.98 -31.18)"/><path class="cls-4" d="M290.57,222a.25.25,0,0,1,0-.49h16.69a.25.25,0,0,1,0,.49Z" transform="translate(-20.98 -31.18)"/><path class="cls-4" d="M290.57,209.87a.24.24,0,0,1-.24-.24.24.24,0,0,1,.24-.24h24.85a.24.24,0,0,1,.25.24.25.25,0,0,1-.25.24Z" transform="translate(-20.98 -31.18)"/><rect class="cls-38" x="254.91" y="176.59" width="12.26" height="9.51" rx="1"/><rect class="cls-38" x="254.91" y="187.9" width="12.26" height="4.32" rx="0.84"/><path class="cls-40" d="M458.19,185.59a34.57,34.57,0,0,0,0,69.13h6v-.52a34.57,34.57,0,0,0,0-68.08v-.53Z" transform="translate(-20.98 -31.18)"/><rect class="cls-22" x="438.47" y="148.55" width="4.81" height="8.14" rx="0.76"/><path class="cls-11" d="M437.66,144.41h6.15a1.3,1.3,0,0,1,1.3,1.3v5.61a1.3,1.3,0,0,1-1.3,1.3h-6.15a1.29,1.29,0,0,1-1.29-1.29v-5.61a1.29,1.29,0,0,1,1.29-1.29Z"/><rect class="cls-41" x="440.5" y="148.55" width="4.81" height="8.14" rx="0.76"/><path class="cls-13" d="M439.82,144.41H446a1.3,1.3,0,0,1,1.3,1.3v5.61a1.3,1.3,0,0,1-1.3,1.3h-6.15a1.3,1.3,0,0,1-1.3-1.3v-5.61a1.29,1.29,0,0,1,1.29-1.29Z"/><rect class="cls-42" x="441.81" y="190.17" width="3.31" height="3.22" rx="0.51" transform="translate(-57.43 216.43) rotate(-30.02)"/><path class="cls-13" d="M439.82,187.66h4.8a.61.61,0,0,1,.61.61v2.66a.62.62,0,0,1-.62.62h-4.8a.61.61,0,0,1-.61-.61v-2.66a.61.61,0,0,1,.61-.61Z" transform="translate(-56.53 215.35) rotate(-30)"/><rect class="cls-42" x="483.35" y="190.12" width="3.22" height="3.31" rx="0.51" transform="matrix(0.5, -0.87, 0.87, 0.5, 55.36, 484.62)"/><rect class="cls-13" x="484.27" y="186.59" width="3.89" height="6.02" rx="0.61" transform="translate(57.86 484.61) rotate(-59.99)"/><path class="cls-19" d="M464.21,254.72a34.57,34.57,0,1,1,34.57-34.56A34.63,34.63,0,0,1,464.21,254.72Z" transform="translate(-20.98 -31.18)"/><path class="cls-5" d="M464.21,247.41a27.25,27.25,0,1,1,27.25-27.25A27.3,27.3,0,0,1,464.21,247.41Z" transform="translate(-20.98 -31.18)"/><path class="cls-43" d="M464.21,196.21h0a.36.36,0,0,1-.36-.36v-1.54a.36.36,0,0,1,.36-.36h0a.36.36,0,0,1,.36.36v1.54A.36.36,0,0,1,464.21,196.21Z" transform="translate(-20.98 -31.18)"/><path class="cls-43" d="M464.21,246.37h0a.36.36,0,0,1-.36-.36v-1.54a.36.36,0,0,1,.36-.36h0a.36.36,0,0,1,.36.36V246A.36.36,0,0,1,464.21,246.37Z" transform="translate(-20.98 -31.18)"/><path class="cls-43" d="M452.24,199.42h0a.36.36,0,0,1-.49-.13L451,198a.36.36,0,0,1,.13-.49h0a.36.36,0,0,1,.49.13l.77,1.33A.37.37,0,0,1,452.24,199.42Z" transform="translate(-20.98 -31.18)"/><path class="cls-43" d="M477.32,242.86h0a.36.36,0,0,1-.49-.13l-.77-1.34a.36.36,0,0,1,.13-.49h0a.36.36,0,0,1,.49.13l.77,1.34A.36.36,0,0,1,477.32,242.86Z" transform="translate(-20.98 -31.18)"/><path class="cls-43" d="M443.47,208.18h0a.36.36,0,0,1-.49.14l-1.33-.78a.35.35,0,0,1-.14-.49h0a.37.37,0,0,1,.5-.13l1.33.77A.36.36,0,0,1,443.47,208.18Z" transform="translate(-20.98 -31.18)"/><path class="cls-43" d="M486.91,233.26h0a.36.36,0,0,1-.49.14l-1.33-.78a.35.35,0,0,1-.14-.49h0a.37.37,0,0,1,.5-.13l1.33.77A.36.36,0,0,1,486.91,233.26Z" transform="translate(-20.98 -31.18)"/><rect class="cls-44" x="417.03" y="188.61" width="2.26" height="0.72" rx="0.36"/><rect class="cls-44" x="467.19" y="188.61" width="2.26" height="0.72" rx="0.36"/><path class="cls-43" d="M443.47,232.13h0a.36.36,0,0,1-.13.49l-1.33.78a.37.37,0,0,1-.5-.14h0a.35.35,0,0,1,.14-.49L443,232A.36.36,0,0,1,443.47,232.13Z" transform="translate(-20.98 -31.18)"/><path class="cls-43" d="M486.91,207.05h0a.36.36,0,0,1-.13.49l-1.33.78a.37.37,0,0,1-.5-.14h0a.35.35,0,0,1,.14-.49l1.33-.77A.36.36,0,0,1,486.91,207.05Z" transform="translate(-20.98 -31.18)"/><path class="cls-43" d="M452.24,240.9h0a.36.36,0,0,1,.13.49l-.77,1.34a.36.36,0,0,1-.49.13h0a.36.36,0,0,1-.13-.49l.77-1.34A.36.36,0,0,1,452.24,240.9Z" transform="translate(-20.98 -31.18)"/><path class="cls-43" d="M477.32,197.46h0a.36.36,0,0,1,.13.49l-.77,1.34a.36.36,0,0,1-.49.13h0a.37.37,0,0,1-.13-.5l.77-1.33A.36.36,0,0,1,477.32,197.46Z" transform="translate(-20.98 -31.18)"/><path class="cls-12" d="M464.21,221.36h0a1.2,1.2,0,0,1-1.2-1.2v-20.4a1.2,1.2,0,0,1,1.2-1.2h0a1.2,1.2,0,0,1,1.2,1.2v20.4A1.2,1.2,0,0,1,464.21,221.36Z" transform="translate(-20.98 -31.18)"/><path class="cls-8" d="M465.06,219.31h0a1.2,1.2,0,0,1,0,1.7l-10.57,10.57a1.22,1.22,0,0,1-1.7,0h0a1.22,1.22,0,0,1,0-1.7l10.58-10.57A1.19,1.19,0,0,1,465.06,219.31Z" transform="translate(-20.98 -31.18)"/><path class="cls-27" d="M485.14,187.45l-1.33,2.3a.63.63,0,0,0,0,.66.7.7,0,0,0,.2.18l-.23-.13-.64-.37a.61.61,0,0,1-.23-.84l1.33-2.3a.61.61,0,0,1,.84-.23l0,0,.84.48a.63.63,0,0,0-.84.23Z" transform="translate(-20.98 -31.18)"/><path class="cls-27" d="M440.56,190.42l.73,1.25a.59.59,0,0,0,.37.29.62.62,0,0,0,.46-.06l-.37.21-.64.37a.62.62,0,0,1-.84-.22l-.71-1.22-.62-1.08a.62.62,0,0,1,.22-.84l1-.59a.62.62,0,0,0-.22.84Z" transform="translate(-20.98 -31.18)"/><path class="cls-45" d="M537.55,298.17a5.19,5.19,0,0,1,5.17,5.17h0a5.19,5.19,0,0,1-5.17,5.18H496.46a2.85,2.85,0,0,0-2.84,2.85h0a2.85,2.85,0,0,0,2.84,2.85h7.39a6.57,6.57,0,0,1,6.55,6.55h0a6.57,6.57,0,0,1-6.55,6.55H474.07l-.56,0-.33,0H46.06c-1.69,0-3.07-1.8-3.07-4h0c0-2.2,1.38-4,3.07-4h9.85a5.73,5.73,0,0,0,5.2-5.69h0a5.73,5.73,0,0,0-5.71-5.7H37.29a4.9,4.9,0,0,1-4.88-4.88h0a4.89,4.89,0,0,1,4.88-4.88H537.55ZM25.8,307.93a4.85,4.85,0,0,0,4.83-4.83V303a4.84,4.84,0,0,0-4.83-4.82h0A4.84,4.84,0,0,0,21,303v.11a4.84,4.84,0,0,0,4.82,4.83Zm494.71,6.29a6.34,6.34,0,0,0-6.32,6.32V321a6.34,6.34,0,0,0,6.32,6.32h0a6.33,6.33,0,0,0,6.32-6.32v-.46a6.33,6.33,0,0,0-6.32-6.32Z" transform="translate(-20.98 -31.18)"/><path class="cls-46" d="M232,193.26H204.31a6.86,6.86,0,0,0-6.84,6.84h0a6.86,6.86,0,0,0,6.84,6.85H232a6.86,6.86,0,0,0,6.84-6.85h0A6.86,6.86,0,0,0,232,193.26Z" transform="translate(-20.98 -31.18)"/><path class="cls-3" d="M403.66,87.49q-.29.18-.57.33a.68.68,0,0,0-.08,1.12.66.66,0,0,0,.75,0c.2-.11.41-.22.6-.34a.77.77,0,0,0,.26-.28.68.68,0,0,0-1-.88ZM207,172.29l-.2-.69-.17-.59a.67.67,0,0,0-1-.37.69.69,0,0,0-.26.73l.17.59.2.71a.68.68,0,0,0,1.3-.38Zm-1.35-5.16-.12-.56-.14-.63,0-.11a.68.68,0,0,0-1.33.27l0,.12.14.64.13.56a.67.67,0,0,0,1,.41.68.68,0,0,0,.27-.7Zm-1-5.24-.06-.36-.1-.63-.05-.33a.66.66,0,0,0-.35-.49.67.67,0,0,0-1,.69l0,.34.1.64.06.36a.58.58,0,0,0,.17.34.67.67,0,0,0,1.16-.56Zm-.72-5.29-.07-.72-.06-.61a.68.68,0,0,0-.3-.5.67.67,0,0,0-1,.62l0,.62.08.73a.72.72,0,0,0,.11.31.68.68,0,0,0,1.23-.45Zm-.4-5.32v-.38l0-.62v-.34a.7.7,0,0,0-.17-.43.67.67,0,0,0-1.18.47v.34l0,.63,0,.38a.67.67,0,0,0,1.34-.05ZM208.68,120l.22-.51.22-.48.1-.21a.68.68,0,0,0-.64-1,.69.69,0,0,0-.58.39l-.1.23-.23.49-.23.52a.68.68,0,0,0,.58,1,.67.67,0,0,0,.66-.41Zm2.37-4.74.19-.33.25-.43.23-.38a.6.6,0,0,0,.09-.45.67.67,0,0,0-1.24-.26l-.24.4-.26.44-.19.33a.73.73,0,0,0-.07.52.68.68,0,0,0,1.24.16Zm2.9-4.43.29-.39.3-.38.22-.27a.68.68,0,0,0-1-.85l-.23.28-.31.4-.3.4a.67.67,0,0,0-.14.45.68.68,0,0,0,1.22.36Zm3.43-4,.27-.29.33-.33.33-.33a.7.7,0,0,0,.21-.42.68.68,0,0,0-1.14-.55l-.36.35-.33.34-.27.28a.65.65,0,0,0-.19.42.67.67,0,0,0,1.15.53Zm38.69-14.7h1.34a.67.67,0,1,0,0-1.34H256a.68.68,0,0,0-.43.17.67.67,0,0,0,.46,1.18Zm5.35,0,.61,0,.49,0h.23a.66.66,0,0,0,.36-.08.68.68,0,0,0-.31-1.27l-.73,0-.62,0a.65.65,0,0,0-.48.19.67.67,0,0,0,.45,1.16Zm5.34.25.71.05.63,0a.67.67,0,0,0,.68-.9.66.66,0,0,0-.58-.44l-.63,0-.72,0a.66.66,0,0,0-.61.32.67.67,0,0,0,.52,1Zm5.34.44,1.34.14a.68.68,0,0,0,.69-.93.64.64,0,0,0-.55-.41l-1.34-.14a.67.67,0,1,0-.14,1.34Zm5.33.61,1.33.17a.68.68,0,0,0,.18-1.34l-1.34-.17a.68.68,0,0,0-.7,1,.69.69,0,0,0,.53.39Zm5.31.73,1.33.21a.68.68,0,0,0,.74-.89.66.66,0,0,0-.53-.45L283,92.8a.65.65,0,0,0-.39.06.67.67,0,0,0,.18,1.27Zm5.31.84,1.32.23a.69.69,0,0,0,.45-.08.67.67,0,0,0-.22-1.25l-1.33-.23a.68.68,0,0,0-.76.85.65.65,0,0,0,.54.48Zm5.29.92,1.32.24a.68.68,0,0,0,.25-1.33l-1.33-.24a.67.67,0,0,0-.46.08.68.68,0,0,0,.22,1.25Zm5.29,1,1.32.25a.67.67,0,0,0,.48-.09.68.68,0,0,0-.23-1.24l-1.32-.25a.68.68,0,0,0-.5.11.67.67,0,0,0,.25,1.22Zm5.28,1,1.33.25a.68.68,0,0,0,.25-1.33l-1.32-.25a.7.7,0,0,0-.45.07.68.68,0,0,0,.19,1.26Zm5.29,1,1.32.25a.68.68,0,0,0,.76-.9.64.64,0,0,0-.51-.43l-1.32-.25a.68.68,0,0,0-.25,1.33Zm5.29,1,1.33.24a.66.66,0,0,0,.39,0,.67.67,0,0,0-.15-1.28l-1.32-.24a.68.68,0,0,0-.25,1.33Zm5.31.94,1.33.23a.67.67,0,0,0,.76-.84.69.69,0,0,0-.54-.49L320,99.48a.67.67,0,1,0-.23,1.32Zm5.32.88,1.33.21a.67.67,0,0,0,.76-.52.68.68,0,0,0-.56-.82l-1.33-.2a.68.68,0,0,0-.75.84.65.65,0,0,0,.55.49Zm5.34.78,1.34.17a.67.67,0,1,0,.16-1.33l-1.33-.18a.68.68,0,1,0-.17,1.34Zm5.37.62.45,0,.47,0,.43,0a.71.71,0,0,0,.46-.14.68.68,0,0,0-.36-1.21l-.42,0-.46,0-.45,0a.67.67,0,1,0-.12,1.34Zm5.4.37.57,0,.45,0h.33a.66.66,0,0,0,.45-.15.68.68,0,0,0-.41-1.2h-.77l-.56,0a.73.73,0,0,0-.41.12.67.67,0,0,0,.35,1.23Zm5.41.11H348a.64.64,0,0,0,.5-.23.67.67,0,0,0-.52-1.11h-1.34a.66.66,0,0,0-.62.42.68.68,0,0,0,.63.93Zm5.41-.15.35,0,.43,0,.57,0a.67.67,0,1,0-.09-1.34l-.56,0-.42,0-.35,0a.66.66,0,0,0-.53.3.68.68,0,0,0,.6,1Zm5.39-.4.42,0,.93-.1a.67.67,0,1,0-.15-1.34l-.5,0-.41,0-.42,0a.67.67,0,0,0-.52,1,.69.69,0,0,0,.65.34Zm5.38-.64,1.33-.2a.66.66,0,0,0,.42-.24.68.68,0,0,0-.62-1.1l-1.33.2a.67.67,0,0,0-.39.2.68.68,0,0,0,.59,1.14Zm5.33-.89,1.33-.25a.65.65,0,0,0,.33-.17.68.68,0,0,0-.59-1.16l-1.32.26a.67.67,0,1,0,.25,1.32Zm5.3-1.11,1.31-.31a.61.61,0,0,0,.33-.19.67.67,0,0,0-.65-1.12l-1.3.31a.67.67,0,1,0,.31,1.31ZM378.69,99l1.3-.37a.68.68,0,0,0,.27-1.14.64.64,0,0,0-.65-.16l-1.28.37a.67.67,0,0,0-.33,1.09.71.71,0,0,0,.69.21Zm5.18-1.56,1.28-.42a.78.78,0,0,0,.33-.24.67.67,0,0,0-.76-1l-1.27.42a.68.68,0,0,0-.28,1.11.7.7,0,0,0,.7.17ZM389,95.71l1.26-.48a.67.67,0,1,0-.48-1.26l-1.25.47a.64.64,0,0,0-.38.36.68.68,0,0,0,.85.91Zm5-2,1.24-.53a.7.7,0,0,0,.36-.36.68.68,0,0,0-.9-.88l-1.23.53a.68.68,0,0,0-.15,1.16.67.67,0,0,0,.68.08Zm6.15-2.81a.68.68,0,1,0-.6-1.21l-1.2.59a.62.62,0,0,0-.32.32.67.67,0,0,0,.9.89Z" transform="translate(-20.98 -31.18)"/><path class="cls-47" d="M363.75,64.51a8.92,8.92,0,0,1,1.95,2.91,9,9,0,0,1,0,6.83,9,9,0,0,1-14.6,2.91A8.94,8.94,0,0,1,354,62.57a8.93,8.93,0,0,1,9.74,1.94Zm-3.22-1.18a8.16,8.16,0,0,0-3.1-.61,8.25,8.25,0,0,0-3.11.61,8.1,8.1,0,0,0-2.63,1.76,8.25,8.25,0,0,0-1.76,2.64,8.09,8.09,0,0,0,0,6.21,8.12,8.12,0,0,0,15,0,8.09,8.09,0,0,0,0-6.21,8.25,8.25,0,0,0-1.76-2.64,8,8,0,0,0-2.64-1.76Zm1-6.58a1,1,0,0,1-.52-.33,1,1,0,0,1-.2-.58V51.26a.59.59,0,0,0-.16-.4.76.76,0,0,0-.19-.12.54.54,0,0,0-.22,0h-5.61a.49.49,0,0,0-.21,0,.51.51,0,0,0-.31.31.49.49,0,0,0,0,.21v4.58a.94.94,0,0,1-.69.9,13.77,13.77,0,0,0-1.67.59,14.92,14.92,0,0,0-1.6.8,15.17,15.17,0,0,0-1.48,1,13.65,13.65,0,0,0-1.36,1.16,1,1,0,0,1-.53.26.92.92,0,0,1-.6-.12l-4-2.28a.44.44,0,0,0-.21-.07.55.55,0,0,0-.22,0,.54.54,0,0,0-.2.1.5.5,0,0,0-.15.17c-.89,1.53-1.85,3.43-2.81,4.85a.86.86,0,0,0-.07.21.62.62,0,0,0,0,.23.54.54,0,0,0,.1.2.43.43,0,0,0,.16.14l3.92,2.27a.89.89,0,0,1,.48,1.05q-.1.43-.18.87c-.05.28-.1.58-.14.89s-.06.59-.08.89,0,.58,0,.89,0,.62,0,.9,0,.59.08.89.09.61.14.89.11.58.18.87l.11.42-.1,0a.94.94,0,0,1-.06.15.92.92,0,0,1-.39.44l-4,2.29a.43.43,0,0,0-.16.14.54.54,0,0,0-.1.2.6.6,0,0,0,0,.23.68.68,0,0,0,.07.2c.94,1.63,1.88,3.24,2.81,4.86a.61.61,0,0,0,.15.17.54.54,0,0,0,.2.1.55.55,0,0,0,.22,0,.58.58,0,0,0,.21-.07l3.91-2.26a1,1,0,0,1,.61-.15,1,1,0,0,1,.56.26,15.12,15.12,0,0,0,1.36,1.16,16,16,0,0,0,1.49,1,13.07,13.07,0,0,0,1.59.79,14,14,0,0,0,1.64.59,1,1,0,0,1,.52.33.94.94,0,0,1,.21.58v4.58a.49.49,0,0,0,0,.21.51.51,0,0,0,.31.31.49.49,0,0,0,.21,0h5.61a.54.54,0,0,0,.22,0,.7.7,0,0,0,.31-.31.49.49,0,0,0,0-.21V85.83a.95.95,0,0,1,.68-.9,15.14,15.14,0,0,0,1.68-.59,14.58,14.58,0,0,0,3.09-1.79,15.12,15.12,0,0,0,1.36-1.16h0a1,1,0,0,1,1.12-.14c1.29.75,2.71,1.5,4,2.29a.58.58,0,0,0,.21.07.55.55,0,0,0,.22,0,.54.54,0,0,0,.2-.1.61.61,0,0,0,.15-.17l.21-.36h0l2.59-4.49a.44.44,0,0,0,.07-.21.6.6,0,0,0,0-.23.75.75,0,0,0-.1-.2.47.47,0,0,0-.17-.14l-.41-.24h0l-3.5-2a.93.93,0,0,1-.49-1.05c.08-.29.14-.59.19-.87s.1-.58.14-.89.06-.59.08-.89,0-.58,0-.9,0-.61,0-.9S372,69.34,372,69s-.09-.6-.14-.88-.11-.58-.19-.87l-.09-.37.08,0,.06-.2a.9.9,0,0,1,.4-.44c1.25-.73,2.77-1.51,3.95-2.29a.61.61,0,0,0,.17-.14.54.54,0,0,0,.1-.2.6.6,0,0,0,0-.23.44.44,0,0,0-.07-.21c-.88-1.53-1.84-3.41-2.8-4.85a.5.5,0,0,0-.15-.17.53.53,0,0,0-.42-.11.35.35,0,0,0-.19.06c-1.29.79-2.67,1.54-4,2.29a.87.87,0,0,1-.58.12.88.88,0,0,1-.54-.25,15.12,15.12,0,0,0-1.36-1.16,16,16,0,0,0-1.49-1,13.07,13.07,0,0,0-1.59-.79,14.1,14.1,0,0,0-1.65-.59Zm.21-.8h0l-.06,0a.19.19,0,0,1,0-.07V51.26a1.39,1.39,0,0,0-.41-1,1.57,1.57,0,0,0-.45-.31,1.62,1.62,0,0,0-.54-.1h-5.61a1.61,1.61,0,0,0-.53.1,1.51,1.51,0,0,0-.76.76,1.61,1.61,0,0,0-.1.53v4.58a.14.14,0,0,1,0,.06s0,0-.06,0a17.86,17.86,0,0,0-1.78.63,15.5,15.5,0,0,0-3.25,1.88,16.72,16.72,0,0,0-1.43,1.22h0a.09.09,0,0,1-.07,0s0,0-.07,0l-3.67-2.12h0l-.29-.17a1.4,1.4,0,0,0-.51-.17,1.45,1.45,0,0,0-.55,0,1.59,1.59,0,0,0-.49.24l-.09.08-.06,0c-1,1.73-2.07,3.49-3,5.23a1.32,1.32,0,0,0-.16.51,1.23,1.23,0,0,0,0,.54,1.59,1.59,0,0,0,.24.49,1.44,1.44,0,0,0,.41.36L342.33,67a.08.08,0,0,1,.05,0,.11.11,0,0,1,0,.08c-.07.29-.14.6-.2.91s-.1.63-.14.94-.06.61-.08.94,0,.64,0,.94,0,.63,0,1,0,.64.08.94.09.62.14.94c0,.16.07.33.1.49h0l.1.42a.08.08,0,0,1,0,.07s0,0,0,.06l-4,2.28a1.59,1.59,0,0,0-.41.36,1.49,1.49,0,0,0-.24.49,1.23,1.23,0,0,0,0,.54.51.51,0,0,0,0,.13l-.05,0c1,1.71,2,3.55,3,5.22a1.35,1.35,0,0,0,.35.4,1.59,1.59,0,0,0,.49.24,1.45,1.45,0,0,0,.55,0,1.4,1.4,0,0,0,.51-.17l4-2.29.07,0,.07,0a16.72,16.72,0,0,0,1.43,1.22,15.46,15.46,0,0,0,1.58,1.05,15.26,15.26,0,0,0,1.67.83,16.84,16.84,0,0,0,1.77.63h0a.15.15,0,0,1,.07,0,.19.19,0,0,1,0,.07v4.58a1.61,1.61,0,0,0,.1.53,1.57,1.57,0,0,0,.31.45,1.37,1.37,0,0,0,.45.3,1.4,1.4,0,0,0,.53.11h5.61a1.41,1.41,0,0,0,.54-.11,1.38,1.38,0,0,0,.75-.75,1.4,1.4,0,0,0,.11-.53V85.83a.14.14,0,0,1,0-.06s0,0,.06,0a17.86,17.86,0,0,0,1.78-.63,16.45,16.45,0,0,0,1.68-.84,15.32,15.32,0,0,0,1.57-1.05A12.9,12.9,0,0,0,368.18,82a.09.09,0,0,1,.07,0,.07.07,0,0,1,.06,0c1.3.75,2.66,1.6,4,2.3a1.54,1.54,0,0,0,.5.16,1.45,1.45,0,0,0,.55,0,1.59,1.59,0,0,0,.49-.24l.09-.08.05,0,3-5.22a1.47,1.47,0,0,0,.14-1.06,1.49,1.49,0,0,0-.24-.49l-.05,0,.05-.07c-1.43-.83-2.91-1.74-4.37-2.52l0,0a.11.11,0,0,1,0-.08c.07-.29.14-.6.19-.92s.11-.62.15-.93.06-.62.08-.94,0-.64,0-1,0-.62,0-.94-.05-.64-.08-.94-.09-.62-.15-.94-.07-.36-.11-.54h0l-.09-.37a.06.06,0,0,1,0-.06s0,0,0-.06c1.3-.75,2.68-1.5,4-2.28a1.39,1.39,0,0,0,.65-.85,1.47,1.47,0,0,0-.14-1.06c-.92-1.6-1.84-3.29-2.81-4.86a1.39,1.39,0,0,0-.35-.41,1.59,1.59,0,0,0-.49-.24,1.57,1.57,0,0,0-.53,0,1.33,1.33,0,0,0-.5.16l-4,2.31a.07.07,0,0,1-.06,0,.09.09,0,0,1-.07,0,13.76,13.76,0,0,0-1.43-1.22,15.46,15.46,0,0,0-1.58-1.05,15.26,15.26,0,0,0-1.67-.83A16.84,16.84,0,0,0,361.73,56Z" transform="translate(-20.98 -31.18)"/><path class="cls-47" d="M457.79,101Zm-2-7.51a3.79,3.79,0,0,1,1.11,2.68,3.79,3.79,0,0,1-3.8,3.8,3.79,3.79,0,0,1-3.79-3.8,3.79,3.79,0,0,1,3.79-3.79,3.79,3.79,0,0,1,2.69,1.11Zm-1-4v-2a.44.44,0,0,0-.13-.31.43.43,0,0,0-.31-.12h-2.5a.41.41,0,0,0-.3.12.44.44,0,0,0-.13.31v2a.23.23,0,0,1-.17.22,6.46,6.46,0,0,0-1.5.64,6.52,6.52,0,0,0-1.3,1,.24.24,0,0,1-.28,0l-1.77-1h0a.48.48,0,0,0-.33,0,.43.43,0,0,0-.27.21h0l-1.24,2.15h0a.43.43,0,0,0,0,.33.45.45,0,0,0,.2.27l1.76,1a.24.24,0,0,1,.12.26,5.37,5.37,0,0,0-.15.8,7.52,7.52,0,0,0-.05.82,7.37,7.37,0,0,0,.05.82,5.14,5.14,0,0,0,.15.8h0a.24.24,0,0,1-.11.26l-1.77,1a.43.43,0,0,0-.2.26.43.43,0,0,0,0,.33h0l1.25,2.15h0a.45.45,0,0,0,.27.2.42.42,0,0,0,.33,0l1.75-1a.24.24,0,0,1,.29,0,7.39,7.39,0,0,0,1.31,1,6.81,6.81,0,0,0,1.49.63.25.25,0,0,1,.18.23v2a.44.44,0,0,0,.13.31.42.42,0,0,0,.3.13h2.5a.44.44,0,0,0,.44-.44v-2a.23.23,0,0,1,.17-.23,6.36,6.36,0,0,0,1.49-.63,6.73,6.73,0,0,0,1.31-1,.24.24,0,0,1,.28,0l1.75,1h0a.43.43,0,0,0,.33,0,.45.45,0,0,0,.27-.2h0l1.25-2.16a.45.45,0,0,0,0-.34.46.46,0,0,0-.2-.26h0l-1.75-1a.23.23,0,0,1-.12-.27,7,7,0,0,0,.14-.8,5.56,5.56,0,0,0,0-.82,5.64,5.64,0,0,0,0-.82,7,7,0,0,0-.14-.8h0a.22.22,0,0,1,.11-.26l1.75-1h0a.45.45,0,0,0,.2-.27.42.42,0,0,0,0-.33l-1.24-2.15h0a.43.43,0,0,0-.27-.21.51.51,0,0,0-.32,0h0l-1.76,1a.23.23,0,0,1-.28,0,6.31,6.31,0,0,0-1.31-1,7,7,0,0,0-1.48-.64A.22.22,0,0,1,454.82,89.47Z" transform="translate(-20.98 -31.18)"/><path class="cls-25" d="M414.25,101.9a.65.65,0,0,1,1.3,0v1.53h1.53a.65.65,0,1,1,0,1.3h-1.53v1.53a.65.65,0,0,1-1.3,0v-1.53h-1.53a.65.65,0,0,1,0-1.3h1.53Z" transform="translate(-20.98 -31.18)"/><path class="cls-47" d="M127.78,259.7Zm-2-7.51a3.74,3.74,0,0,1,1.11,2.68,3.79,3.79,0,0,1-1.11,2.69,3.8,3.8,0,0,1-5.37,0,3.79,3.79,0,0,1-1.11-2.69,3.74,3.74,0,0,1,1.11-2.68,3.78,3.78,0,0,1,5.37,0Zm-1-4v-2a.44.44,0,0,0-.44-.44h-2.5a.43.43,0,0,0-.3.13.44.44,0,0,0-.13.31v2a.23.23,0,0,1-.17.22,6.64,6.64,0,0,0-1.5.64,6.88,6.88,0,0,0-1.3,1,.22.22,0,0,1-.28,0l-1.77-1h0a.42.42,0,0,0-.33,0,.43.43,0,0,0-.26.2h0l-1.25,2.16h0a.42.42,0,0,0,0,.33.39.39,0,0,0,.2.27l1.75,1a.22.22,0,0,1,.12.26c-.06.26-.11.53-.15.8a6.75,6.75,0,0,0,0,1.64c0,.27.09.54.15.8h0a.24.24,0,0,1-.11.26l-1.76,1a.35.35,0,0,0-.2.26.42.42,0,0,0,0,.33h0l1.24,2.15v0a.43.43,0,0,0,.26.2.42.42,0,0,0,.33,0l1.76-1a.24.24,0,0,1,.29,0,7,7,0,0,0,1.3,1,6.81,6.81,0,0,0,1.49.63.24.24,0,0,1,.18.23v2a.44.44,0,0,0,.13.31.43.43,0,0,0,.3.13h2.5a.44.44,0,0,0,.44-.44v-2a.24.24,0,0,1,.17-.23,6.64,6.64,0,0,0,1.5-.64,6.52,6.52,0,0,0,1.3-1,.23.23,0,0,1,.28,0l1.75,1h0a.42.42,0,0,0,.33,0,.46.46,0,0,0,.26-.2h0l1.25-2.17a.42.42,0,0,0,0-.33.41.41,0,0,0-.2-.26h0l-1.75-1a.23.23,0,0,1-.12-.27c.06-.26.11-.53.15-.8a8.42,8.42,0,0,0,0-1.64c0-.27-.09-.54-.15-.8h0a.23.23,0,0,1,.11-.26l1.75-1h0a.48.48,0,0,0,.2-.27.42.42,0,0,0,0-.33l-1.24-2.15v0a.46.46,0,0,0-.26-.2.42.42,0,0,0-.33,0h0l-1.77,1a.24.24,0,0,1-.28,0,6.78,6.78,0,0,0-2.79-1.62A.23.23,0,0,1,124.81,248.2Z" transform="translate(-20.98 -31.18)"/><path class="cls-47" d="M89.63,261.56a9.11,9.11,0,0,1,1.94,2.9,8.94,8.94,0,0,1,0,6.84,8.92,8.92,0,0,1-4.85,4.85A9,9,0,0,1,75,271.3a8.9,8.9,0,0,1,2-9.74,8.94,8.94,0,0,1,9.74-1.94,9,9,0,0,1,2.91,1.94Zm-3.22-1.18a8.06,8.06,0,0,0-3.11-.61,8,8,0,0,0-3.1.61,8.09,8.09,0,0,0-4.4,4.4,8.09,8.09,0,0,0,0,6.21,8.09,8.09,0,0,0,7.5,5,8.25,8.25,0,0,0,3.11-.61A8.13,8.13,0,0,0,89,273.62a8,8,0,0,0,2.38-5.74,8.16,8.16,0,0,0-.61-3.1A8.34,8.34,0,0,0,89,262.14a8.1,8.1,0,0,0-2.63-1.76Zm1-6.58a.92.92,0,0,1-.52-.34.9.9,0,0,1-.21-.58v-4.57a.59.59,0,0,0-.16-.4.62.62,0,0,0-.19-.12.49.49,0,0,0-.21,0H80.5a.54.54,0,0,0-.22,0,.57.57,0,0,0-.18.12.59.59,0,0,0-.13.19.49.49,0,0,0,0,.21v4.57a.95.95,0,0,1-.68.91,13.34,13.34,0,0,0-1.68.59,14.77,14.77,0,0,0-1.59.8,13.68,13.68,0,0,0-1.49,1,14.89,14.89,0,0,0-1.36,1.16,1,1,0,0,1-.53.26.92.92,0,0,1-.6-.12l-4-2.28a.6.6,0,0,0-.21-.08.55.55,0,0,0-.22,0,.54.54,0,0,0-.2.1.57.57,0,0,0-.15.16c-.89,1.54-1.85,3.44-2.8,4.86a.44.44,0,0,0-.07.21.55.55,0,0,0,0,.22.68.68,0,0,0,.1.21,1.07,1.07,0,0,0,.16.14l3.93,2.26a1,1,0,0,1,.42.44,1,1,0,0,1,.06.62c-.07.29-.14.58-.19.87s-.1.57-.14.88-.06.6-.07.89,0,.59,0,.9,0,.61,0,.9,0,.59.07.89.09.6.14.89.12.57.19.86l.1.43-.1,0a.88.88,0,0,1,0,.15.94.94,0,0,1-.4.44l-4,2.28a.57.57,0,0,0-.16.15.75.75,0,0,0-.1.2.6.6,0,0,0,0,.23.37.37,0,0,0,.07.2c.93,1.63,1.87,3.24,2.8,4.86a.61.61,0,0,0,.15.17l.2.1a.81.81,0,0,0,.22,0,.52.52,0,0,0,.21-.07L72,278.33a.92.92,0,0,1,.6-.15,1,1,0,0,1,.56.26,16.65,16.65,0,0,0,1.36,1.16,16,16,0,0,0,1.49,1,14.7,14.7,0,0,0,1.59.79,14.1,14.1,0,0,0,1.65.59,1,1,0,0,1,.52.33,1,1,0,0,1,.2.58v4.57a.51.51,0,0,0,0,.22.59.59,0,0,0,.13.19.57.57,0,0,0,.18.12.54.54,0,0,0,.22,0h5.61a.49.49,0,0,0,.21,0,.5.5,0,0,0,.19-.13.57.57,0,0,0,.12-.18.51.51,0,0,0,0-.22v-4.57a.91.91,0,0,1,.18-.56.94.94,0,0,1,.5-.34,15.72,15.72,0,0,0,1.67-.59,14.92,14.92,0,0,0,1.6-.8,16,16,0,0,0,1.49-1,15.12,15.12,0,0,0,1.36-1.16h0a.93.93,0,0,1,1.12-.14c1.29.75,2.71,1.5,4,2.29a.58.58,0,0,0,.21.07.91.91,0,0,0,.23,0l.2-.1a.79.79,0,0,0,.14-.17l.21-.36h0l2.6-4.5a.68.68,0,0,0,.07-.2.6.6,0,0,0,0-.23.54.54,0,0,0-.1-.2.57.57,0,0,0-.16-.15l-.42-.23h0l-3.5-2a.9.9,0,0,1-.42-.44.87.87,0,0,1-.06-.62q.1-.44.18-.87c0-.28.1-.57.14-.88s.06-.59.08-.89,0-.58,0-.9,0-.61,0-.9,0-.59-.08-.89-.08-.6-.14-.88-.11-.58-.18-.87l-.1-.37.09,0a.66.66,0,0,1,.06-.2.88.88,0,0,1,.39-.44c1.25-.73,2.78-1.51,4-2.29a.57.57,0,0,0,.16-.15.42.42,0,0,0,.1-.2.55.55,0,0,0,0-.22.86.86,0,0,0-.07-.21c-.89-1.54-1.85-3.41-2.81-4.86a.73.73,0,0,0-.14-.16.54.54,0,0,0-.2-.1.86.86,0,0,0-.22,0,.66.66,0,0,0-.2.06c-1.28.79-2.67,1.54-4,2.3a.85.85,0,0,1-.58.12.93.93,0,0,1-.54-.25,13.65,13.65,0,0,0-1.36-1.16,14.25,14.25,0,0,0-1.49-1,15.6,15.6,0,0,0-1.58-.8,16.14,16.14,0,0,0-1.65-.58Zm.2-.8h0a.1.1,0,0,1-.07,0,.12.12,0,0,1,0-.07v-4.57a1.35,1.35,0,0,0-.41-1,1.57,1.57,0,0,0-.45-.31,1.39,1.39,0,0,0-.53-.1H80.5a1.4,1.4,0,0,0-.54.1,1.57,1.57,0,0,0-.45.31,1.27,1.27,0,0,0-.3.45,1.32,1.32,0,0,0-.11.53v4.57a.14.14,0,0,1,0,.07L79,253a13.79,13.79,0,0,0-1.77.63,16.61,16.61,0,0,0-1.69.84,15.79,15.79,0,0,0-1.57,1,16.72,16.72,0,0,0-1.43,1.22h0l-.06,0h-.07l-3.68-2.12h0l-.29-.16a1.36,1.36,0,0,0-.51-.18,1.68,1.68,0,0,0-.55,0,1.59,1.59,0,0,0-.49.24l-.09.08,0,0c-1,1.72-2.08,3.48-3,5.23a1.32,1.32,0,0,0-.16.51,1.41,1.41,0,0,0,0,.54,1.39,1.39,0,0,0,.65.85l4,2.28.05.05a.09.09,0,0,1,0,.07c-.07.3-.14.61-.19.92s-.11.63-.15.93-.06.62-.08.95,0,.63,0,.94,0,.63,0,.95,0,.64.08.94.09.62.15.93.06.34.1.5h0l.1.42a.09.09,0,0,1,0,.07l-.05.05-4,2.29a1.26,1.26,0,0,0-.4.36,1.34,1.34,0,0,0-.25.49,1.4,1.4,0,0,0,0,.54.59.59,0,0,0,0,.13l-.05,0c1,1.72,2,3.55,3,5.23a1.65,1.65,0,0,0,.35.39,1.24,1.24,0,0,0,.49.24,1.45,1.45,0,0,0,.55,0,1.4,1.4,0,0,0,.51-.17l4-2.29.07,0,.07,0A14.15,14.15,0,0,0,74,280.26a15.32,15.32,0,0,0,1.57,1.05,14.56,14.56,0,0,0,1.68.83,15.89,15.89,0,0,0,1.76.63h0l.06,0a.14.14,0,0,1,0,.07v4.57a1.41,1.41,0,0,0,.11.54,1.38,1.38,0,0,0,.75.75,1.41,1.41,0,0,0,.54.11h5.61a1.4,1.4,0,0,0,.53-.11,1.37,1.37,0,0,0,.45-.3,1.57,1.57,0,0,0,.31-.45,1.62,1.62,0,0,0,.1-.54v-4.57a.19.19,0,0,1,0-.07l.06,0a17.86,17.86,0,0,0,1.78-.63,16.45,16.45,0,0,0,1.68-.84,15.46,15.46,0,0,0,1.58-1.05A16.72,16.72,0,0,0,94.05,279a.09.09,0,0,1,.07,0,.07.07,0,0,1,.06,0c1.31.75,2.67,1.6,4,2.29a1.34,1.34,0,0,0,.51.17,1.4,1.4,0,0,0,.54,0,1.24,1.24,0,0,0,.49-.24l.09-.07.06,0,3-5.22a1.35,1.35,0,0,0,.14-1.06,1.49,1.49,0,0,0-.24-.49l0-.06,0-.06c-1.44-.83-2.92-1.74-4.38-2.52a.15.15,0,0,1,0-.06.08.08,0,0,1,0-.07c.07-.3.14-.6.2-.92s.1-.63.14-.93a9.4,9.4,0,0,0,.08-.94c0-.32,0-.64,0-.95s0-.62,0-.94a9.15,9.15,0,0,0-.08-.94c0-.31-.09-.62-.14-.94s-.07-.36-.11-.54h0l-.09-.37s0,0,0-.07a.07.07,0,0,1,0-.05c1.3-.75,2.69-1.5,4-2.28a1.44,1.44,0,0,0,.41-.36,1.59,1.59,0,0,0,.24-.49,1.45,1.45,0,0,0,0-.55,1.42,1.42,0,0,0-.18-.51c-.92-1.6-1.84-3.3-2.8-4.86a1.39,1.39,0,0,0-.85-.65,1.57,1.57,0,0,0-.53,0,1.33,1.33,0,0,0-.5.16l-4,2.31h-.07a.06.06,0,0,1-.06,0,16.71,16.71,0,0,0-1.44-1.23,17.23,17.23,0,0,0-1.58-1,16.29,16.29,0,0,0-1.67-.84A14.8,14.8,0,0,0,87.6,253Z" transform="translate(-20.98 -31.18)"/><path class="cls-25" d="M402.83,35.25a.65.65,0,0,1,1.3,0v1.53h1.53a.66.66,0,0,1,.65.66.65.65,0,0,1-.65.65h-1.53v1.53a.65.65,0,0,1-1.3,0V38.09h-1.54a.66.66,0,0,1-.65-.65.66.66,0,0,1,.65-.66h1.54Z" transform="translate(-20.98 -31.18)"/><path class="cls-25" d="M467.57,70.48a.65.65,0,1,1,1.3,0V72h1.53a.65.65,0,0,1,0,1.3h-1.53v1.53a.65.65,0,1,1-1.3,0V73.31H466a.65.65,0,1,1,0-1.3h1.54Z" transform="translate(-20.98 -31.18)"/><path class="cls-25" d="M305.72,80a.65.65,0,0,1,1.3,0v1.53h1.53a.65.65,0,1,1,0,1.3H307v1.54a.65.65,0,0,1-1.3,0V82.83h-1.53a.65.65,0,1,1,0-1.3h1.53Z" transform="translate(-20.98 -31.18)"/><path class="cls-25" d="M115.31,277.07a.65.65,0,1,1,1.3,0v1.54h1.53a.65.65,0,0,1,0,1.3h-1.53v1.53a.65.65,0,1,1-1.3,0v-1.53h-1.53a.65.65,0,0,1,0-1.3h1.53Z" transform="translate(-20.98 -31.18)"/><path class="cls-25" d="M42,248.51a.65.65,0,1,1,1.3,0V250h1.53a.66.66,0,0,1,0,1.31H43.3v1.53a.65.65,0,0,1-1.3,0v-1.53H40.47a.66.66,0,0,1,0-1.31H42Z" transform="translate(-20.98 -31.18)"/><path class="cls-25" d="M526.59,224.71a.65.65,0,1,1,1.3,0v1.53h1.54a.65.65,0,0,1,0,1.3h-1.54v1.54a.65.65,0,0,1-1.3,0v-1.54h-1.53a.65.65,0,1,1,0-1.3h1.53Z" transform="translate(-20.98 -31.18)"/><path class="cls-25" d="M390.45,80a.65.65,0,0,1,1.3,0v1.53h1.53a.65.65,0,0,1,0,1.3h-1.53v1.54a.65.65,0,1,1-1.3,0V82.83h-1.53a.65.65,0,1,1,0-1.3h1.53Z" transform="translate(-20.98 -31.18)"/><path class="cls-48" d="M300.09,240.75l.72,1s3.5,9.62,4.73,12.55.85,4.45.91,7.44.59,10.92.59,12.48-2,1.84-2.12.65A164.14,164.14,0,0,1,303,258.19s-6.43-8.84-8.9-13.26-.84-5.13-.84-5.13Z" transform="translate(-20.98 -31.18)"/><path class="cls-49" d="M298.25,240.19c.43.06.82.11.75.62-.77,5.72-2.12,14.78-4,20.2-.32.94-8.86,7-11.36,10.78a.92.92,0,0,1-.85.15,1.68,1.68,0,0,1-.93-1.16c-.08-.48,6-8.43,9.21-11.5a1.46,1.46,0,0,0,.26-.76c0-.36-.48-15.25.09-17.45S298.25,240.19,298.25,240.19Z" transform="translate(-20.98 -31.18)"/><path class="cls-50" d="M301,241.49l0,.31L305.72,254s.17.47-.06.64a16,16,0,0,0-3.73,2.06.64.64,0,0,1-.81-.2c-.34-.45-5.68-7.28-5.68-7.28s2-6.29,2-6.5A24.19,24.19,0,0,1,301,241.49Z" transform="translate(-20.98 -31.18)"/><path class="cls-51" d="M299.13,242.08s-1.26,9.22-2.64,14.46a.23.23,0,0,1-.24.16,8.31,8.31,0,0,1-4.95-.73,1.57,1.57,0,0,1-.48-.79c-.06-.42-.66-11.82,0-14S298.25,240.19,299.13,242.08Z" transform="translate(-20.98 -31.18)"/><path class="cls-52" d="M286.93,238.34l-.9,1.3a1.25,1.25,0,0,0,.22,1.63h0a1,1,0,0,0,1.5-.2l.89-1.29a1.26,1.26,0,0,0-.22-1.64h0A1,1,0,0,0,286.93,238.34Z" transform="translate(-20.98 -31.18)"/><path class="cls-52" d="M288,239.55l.19.72a.4.4,0,0,0,.59.25h0a.66.66,0,0,0,.32-.72l-.19-.72a.4.4,0,0,0-.59-.25h0A.66.66,0,0,0,288,239.55Z" transform="translate(-20.98 -31.18)"/><path class="cls-40" d="M289.1,238.13c-.08.11-1.14-.65-1.18-.83a23.64,23.64,0,0,1,2.87-5c1.08-1.1,3.6-1,2.75.56C293.15,233.59,290.93,235.76,289.1,238.13Z" transform="translate(-20.98 -31.18)"/><path class="cls-53" d="M289.3,237.68a4.86,4.86,0,0,0-1.33-.62c-.46,0-.75.68-.63,1a3.33,3.33,0,0,0,1.25.8C289.08,239,289.88,238.05,289.3,237.68Z" transform="translate(-20.98 -31.18)"/><path class="cls-49" d="M300.06,216.42l.3.58a1.9,1.9,0,0,0-1.6.19c-.6.52-.61.82-.95.83s-3-.36-3.21-1.4c.74-1.17,3.58-3.33,3.78-3.69,0,0,.1-1.07.48-1.4s.89,0,.82.53S300.06,216.42,300.06,216.42Z" transform="translate(-20.98 -31.18)"/><path class="cls-49" d="M299,212.72h0s-.17.19-.45.47l.82,3.29a1.9,1.9,0,0,0,1,.52l0,0c1.51.94,2,.29,2.14.13s.57-1,.64-1,.43.18.55,0a18.08,18.08,0,0,0,1.1-3.27,4.3,4.3,0,0,0-.6-3.26c-2.84-1.11-3.6,2.93-4,2.43s-1.07-.35-1.22.4A1.09,1.09,0,0,0,299,212.72Z" transform="translate(-20.98 -31.18)"/><path class="cls-50" d="M300.7,213.39h0l.09-.22a2,2,0,0,1,1-1,.5.5,0,0,0,.33-.37h0c.32-.83,1,.24,2.25.24,1.91-.28,2.49-3.35-.23-4.43-2.13-.83-5.68-1-6.17,1.31a1.25,1.25,0,0,0-1,1.41c.09,1.24.43,3.25,0,3.9h0s1.76.27,2.18-1c-.05-1.56,1.11-1.81,1.16-.56a1.64,1.64,0,0,1,0,.18c-.05.17-.24,1.14,0,1.07S300.67,213.48,300.7,213.39Z" transform="translate(-20.98 -31.18)"/><path class="cls-18" d="M292.26,219.48c-.72,1.71-1.65,4.09-1.41,9.17s.75,8.44,0,10.8-.3,2.34.64,2.48,6.07,2.44,9.31-.17c0,0,.57-.32.48-1.62s-1.67-7.5-1-11.35c1.11-6.13.49-8.87-2.38-11-.78-.57-1.46-1.46-2.12-2C294.91,215.13,292.6,218.69,292.26,219.48Z" transform="translate(-20.98 -31.18)"/><path class="cls-54" d="M304.86,275a7.58,7.58,0,0,1,0,1.35,1.32,1.32,0,0,0,0,.59s-.09.29.08.37a5,5,0,0,0,2,.07,6.25,6.25,0,0,1,2.39,0c.55.14,1.7.19,2.17-.51a.31.31,0,0,0-.07-.29c-.13-.12.09-.9-.67-1a6,6,0,0,1-2.33-.55,7.43,7.43,0,0,1-.91-.48h0l0,0a.81.81,0,0,0-.52-.2.78.78,0,0,0-.58.47c-.08.22-.06.35-.3.47s-.86.17-1-.05S304.85,274.83,304.86,275Z" transform="translate(-20.98 -31.18)"/><path class="cls-5" d="M304.89,276.92s-.09.29.08.37a5,5,0,0,0,2,.07,6.25,6.25,0,0,1,2.39,0c.55.14,1.7.19,2.17-.51a.31.31,0,0,0-.07-.29s-.38.75-1.64.55a6.82,6.82,0,0,0-2.64-.08A5.89,5.89,0,0,1,304.89,276.92Z" transform="translate(-20.98 -31.18)"/><path class="cls-54" d="M282.25,269.8l-.31.4a8,8,0,0,1-.92,1,1.43,1.43,0,0,0-.38.45s-.26.16-.18.33a4.86,4.86,0,0,0,1.43,1.43,6.22,6.22,0,0,1,1.77,1.6c.31.48,1.13,1.3,1.94,1.11a.33.33,0,0,0,.14-.27c0-.17.69-.6.21-1.19a6,6,0,0,1-1.33-2c-.24-.65-.41-.93-.33-1.24a.37.37,0,0,0-.19-.32c-.19-.09-.72,0-1.13-.35s-.65-.52-.6-.77-.12-.18-.12-.18Z" transform="translate(-20.98 -31.18)"/><path class="cls-5" d="M280.64,271.64s-.26.16-.18.33a4.86,4.86,0,0,0,1.43,1.43,6.22,6.22,0,0,1,1.77,1.6c.31.48,1.13,1.3,1.94,1.11a.33.33,0,0,0,.14-.27,2,2,0,0,1-1.68-.85,10.26,10.26,0,0,0-1.84-1.81A5,5,0,0,1,280.64,271.64Z" transform="translate(-20.98 -31.18)"/><path class="cls-50" d="M292.09,219.9c10.78-8.12,7.93,16.2-1.58,16.53-5.69.2-.5-1.93-.5-1.93,5.64-.41,9.67-18,2.63-13.68C291.67,221.42,292,221.56,292.09,219.9Z" transform="translate(-20.98 -31.18)"/><path class="cls-40" d="M293.32,224.16c.65,4.06,1.95,11.06,2.45,11.83.68,1,8.37,5.78,10,5.89,0,0,.18,0,.15-.23s-.36-1-.18-1.34-.08-.44-.46-.53a70.83,70.83,0,0,1-6.8-5.22c-1.14-1.12-.32-9.93-.36-11C298,218.35,292.37,218.14,293.32,224.16Z" transform="translate(-20.98 -31.18)"/><path class="cls-52" d="M305.37,241.9l1.46.59a1.26,1.26,0,0,0,1.54-.58h0a1,1,0,0,0-.53-1.42l-1.46-.58a1.25,1.25,0,0,0-1.54.58h0A1,1,0,0,0,305.37,241.9Z" transform="translate(-20.98 -31.18)"/><path class="cls-52" d="M306.31,240.59l.65-.35a.39.39,0,0,0,.11-.62h0a.65.65,0,0,0-.77-.16l-.65.35a.38.38,0,0,0-.11.62h0A.65.65,0,0,0,306.31,240.59Z" transform="translate(-20.98 -31.18)"/><path class="cls-50" d="M286.54,237.7l3.28.1a2,2,0,0,0,2-1.88l.49-15.77a1.94,1.94,0,0,0-1.88-2l-3.28-.1a2,2,0,0,0-2,1.88l-.49,15.76A2,2,0,0,0,286.54,237.7Z" transform="translate(-20.98 -31.18)"/><rect class="cls-55" x="285.55" y="230.76" width="5.43" height="8.55" rx="0.66" transform="translate(23.4 484.67) rotate(-88.22)"/><rect class="cls-22" x="284.44" y="221.97" width="8.33" height="4.42" rx="1.2" transform="translate(34.51 474.44) rotate(-88.2)"/><rect class="cls-22" x="288.04" y="227.31" width="0.8" height="4.42" rx="0.22" transform="translate(29.08 479.49) rotate(-88.22)"/><path class="cls-12" d="M287.73,230.68l2.66.09a.21.21,0,0,1,.21.22v.37a.21.21,0,0,1-.22.21l-2.66-.09a.21.21,0,0,1-.21-.22v-.37A.21.21,0,0,1,287.73,230.68Z" transform="translate(-20.98 -31.18)"/><path class="cls-12" d="M286.41,230.64l.41,0a.21.21,0,0,1,.21.22v.37a.22.22,0,0,1-.22.21l-.41,0a.21.21,0,0,1-.21-.22v-.37A.21.21,0,0,1,286.41,230.64Z" transform="translate(-20.98 -31.18)"/><rect class="cls-23" x="287.82" y="229.73" width="0.99" height="7.42" rx="0.25" transform="translate(24.99 483.12) rotate(-88.21)"/><path class="cls-53" d="M304.34,239.41a8,8,0,0,0-.42,1.86.7.7,0,0,0,1.11.4,5.32,5.32,0,0,0,.61-1.83C305.71,239.2,304.62,238.57,304.34,239.41Z" transform="translate(-20.98 -31.18)"/><rect class="cls-56" x="359.1" y="82.99" width="11.47" height="21.36" rx="2.64"/><path class="cls-57" d="M378.88,134.92c-.45-.06-.87-.13-.95.44a93.31,93.31,0,0,0-1,17.22c.12,2.46,2.27,2.8,3,2.27,2.29-1.58,5.4-17.59,5.4-17.68C385.47,134.67,378.88,134.92,378.88,134.92Z" transform="translate(-20.98 -31.18)"/><path class="cls-57" d="M376.91,153.36c-.14,4.19.65,14.94-.54,20,0,1.35.45,1,1.14.38.45-.4,3.12-13.74,3.58-20.16,0,0,.15-2.29-.69-3.09S377.08,149.74,376.91,153.36Z" transform="translate(-20.98 -31.18)"/><path class="cls-54" d="M381.47,135.81c-.45.06-.87.1-.8.67a94.25,94.25,0,0,0,3.38,16.92c.74,2.34,2.91,2.13,3.52,1.43,1.82-2.11.8-18.38.78-18.47C387.79,133.92,381.47,135.81,381.47,135.81Z" transform="translate(-20.98 -31.18)"/><path class="cls-58" d="M381.32,118.79c0-.25-.12-3.86-.12-3.86s-3.57.42-5.84-1.6-5.29-6.79-5.8-7.38-1.41.11-1.5.44a104.37,104.37,0,0,0,5.07,10.07c.83,1.25,3.58,2.46,3.88,2.88s.52.54.52,2Z" transform="translate(-20.98 -31.18)"/><path class="cls-59" d="M388.54,136.59c-.72,3.6-10.48,2.79-11.25,1.4h0a2.89,2.89,0,0,1,0-1.77c1.95-11.53-2.9-17.38,2.37-20.68,2.64-1.65,9.31-1,9.74,1.94.51,3.52-1.62,7.72-1.66,11.31C387.73,132.14,389.15,133.54,388.54,136.59Z" transform="translate(-20.98 -31.18)"/><path class="cls-52" d="M383.37,109.05h0a1.85,1.85,0,0,0-1.84,1.85v3.76a1.85,1.85,0,0,0,1.84,1.84h0a1.85,1.85,0,0,0,1.85-1.84V110.9A1.85,1.85,0,0,0,383.37,109.05Z" transform="translate(-20.98 -31.18)"/><path class="cls-52" d="M385.69,112.82a3.06,3.06,0,0,0-.47,1.94,1.53,1.53,0,0,0-1.38-1.52s-1.91.56-2,.81h0c-1.71-.18-1.73-1-1.71-1.16s.15-1.1.12-1.17-.43-.11-.41-.34a18.53,18.53,0,0,1,1.1-3.14,4.15,4.15,0,0,1,2.4-2.13c2.81.84,1,4.38,1.61,4.24s1,.37.7,1C385.61,111.47,385.76,112.75,385.69,112.82Z" transform="translate(-20.98 -31.18)"/><path class="cls-50" d="M383.82,110.86a1.61,1.61,0,0,0-.18-1.41c-.14-.2-.08-.46.15-.76s.44-1.72-1.39-2.11c.19-6.16,4.11-2.52,5.53.6.91,2-.86,4.38-1.25,4.86s-.15.19-.21.28-.27.32-.47.6-.58.44-.78.17a1.37,1.37,0,0,1-.2-1.26s.82-1,.32-1.37c0,0-.29-.43-.87.26a2.56,2.56,0,0,0-.24.77C384.19,111.85,383.64,111.62,383.82,110.86Z" transform="translate(-20.98 -31.18)"/><path class="cls-54" d="M384.21,154.16c.92,4.09,4.22,14.23,4.33,19.4.33,1.31.62.95,1.13.17.34-.5-.21-14.1-1.37-20.44,0,0-.43-2.25-1.45-2.82S383.46,150.61,384.21,154.16Z" transform="translate(-20.98 -31.18)"/><path class="cls-52" d="M383.17,127.16l-1.13-.69a1.06,1.06,0,0,1-.38-1.34h0a.84.84,0,0,1,1.22-.35l1.13.69a1.06,1.06,0,0,1,.38,1.34h0A.85.85,0,0,1,383.17,127.16Z" transform="translate(-20.98 -31.18)"/><path class="cls-52" d="M383.58,125.86l-.09-.61a.33.33,0,0,1,.37-.39h0a.55.55,0,0,1,.5.44l.09.62a.33.33,0,0,1-.37.39h0A.57.57,0,0,1,383.58,125.86Z" transform="translate(-20.98 -31.18)"/><path class="cls-52" d="M368.11,106.28a1.86,1.86,0,0,0-.27-.58c-.25-.38-.17-.62-.27-1a7.28,7.28,0,0,1,0-1.4c0-.35.95-.85,1.16-1.09s.41.12.25.37a.41.41,0,0,1-.18.45c-.27.22,0,.52.16.6s.23-.07.46-.24.28-.27.39-.18.23.3-.07.57-.35.79-.48,1.16a2.16,2.16,0,0,0-.13,1C369.16,106,368.65,106.93,368.11,106.28Z" transform="translate(-20.98 -31.18)"/><path class="cls-52" d="M367.74,103.05c.28-.3.86-.63,1-.81s.41.12.25.37a.41.41,0,0,1-.18.45.31.31,0,0,0,0,.49c-.12.09-.4.16-.51,0S367.9,103.23,367.74,103.05Z" transform="translate(-20.98 -31.18)"/><path class="cls-56" d="M348,71.32h4.15a.49.49,0,0,1,.49.49v1.66a.49.49,0,0,1-.49.49H348a.5.5,0,0,1-.5-.5V71.82A.49.49,0,0,1,348,71.32Z"/><path class="cls-52" d="M367.91,102.89l.25-.19c.27-.11.78-.27.9-.31a.36.36,0,0,1-.05.22.41.41,0,0,1-.18.45l0,0h0l0,0a1.28,1.28,0,0,0-.23.51.26.26,0,0,1-.2-.05c-.08-.09-.32-.29-.49-.46A1.47,1.47,0,0,1,367.91,102.89Z" transform="translate(-20.98 -31.18)"/><rect class="cls-60" x="351.4" y="71.88" width="0.65" height="0.66" rx="0.12"/><rect class="cls-24" x="351.72" y="72.75" width="0.33" height="0.33" rx="0.06"/><path class="cls-50" d="M389.77,115.81l-.62.51s-1.36-.56-2.34,2,1,8.41,1.44,9.51a3.46,3.46,0,0,1,.23,2,15.82,15.82,0,0,1-3.87-9c-.56-5.64,2.08-6.38,2.82-6.38S389.77,115.81,389.77,115.81Z" transform="translate(-20.98 -31.18)"/><path class="cls-50" d="M389.77,115.81l-.62.51s-1.36-.56-2.34,2l-.12.4h-.25v-4a2.2,2.2,0,0,1,1-.28C388.17,114.52,389.77,115.81,389.77,115.81Z" transform="translate(-20.98 -31.18)"/><path class="cls-58" d="M388.82,116.27A6.87,6.87,0,0,1,391,119.1c.78,2.14,1.86,11.35,1.86,12.7s-.64,2.21-2.13,1.59-6.91-5.5-7.15-5.78a1,1,0,0,1,.49-1.33c.56-.29.93.24,1.45.6s3.12,2,3.24,2.08-1.34-5.79-1.5-7a34.45,34.45,0,0,1-.4-3.63C387.49,116.56,388.36,116.27,388.82,116.27Z" transform="translate(-20.98 -31.18)"/><path class="cls-50" d="M381.54,114.85s-2.84,1.28-2.9,6.36-.94,6.25-.94,6.25a3.13,3.13,0,0,1-.21-2.32,28,28,0,0,0,.19-4.61c-.16-1.94-.06-4.26,2.05-5.58A2.48,2.48,0,0,1,381.54,114.85Z" transform="translate(-20.98 -31.18)"/><path class="cls-29" d="M420.32,219.43l.39-.47a88.61,88.61,0,0,1,4.88,8.14c2.13,4.14-4.26,6-6.88,7.2a.38.38,0,0,1-.34-.07.7.7,0,0,1-.12-.88c.2-.43,4.63-3.08,5.2-3.95s-3.13-5.56-4.23-6.7Z" transform="translate(-20.98 -31.18)"/><path class="cls-12" d="M414.28,216a3,3,0,0,1-.28,1.64c-.39.56,1.38.83,2.55.34a1.86,1.86,0,0,0,.81-2.49C417,215.24,414.28,216,414.28,216Z" transform="translate(-20.98 -31.18)"/><path class="cls-12" d="M415.69,236.11c-.42-.24-.8-.47-1.11.06A99.59,99.59,0,0,0,407,252.81c-.83,2.47,1.16,3.64,2.12,3.41,2.88-.67,12.14-15.28,12.18-15.36C422.29,238.42,415.69,236.11,415.69,236.11Z" transform="translate(-20.98 -31.18)"/><path class="cls-12" d="M406.42,254c-1.38,4.22-3.85,13.48-6.56,18.26,0,0-.24.76.12,1.17a1.42,1.42,0,0,0,1.64.26c.57-.27,6.61-11.86,9-18.25,0,0,.83-2.29.21-3.36S407.67,250.4,406.42,254Z" transform="translate(-20.98 -31.18)"/><path class="cls-21" d="M414.2,237.55c-.46.16-.89.29-.7.87a99,99,0,0,0,7.1,16.86c1.26,2.28,3.48,1.6,4,.74,1.1-2-1.26-12.15-2.46-16.91C421.44,236.5,416.59,236.37,414.2,237.55Z" transform="translate(-20.98 -31.18)"/><path class="cls-21" d="M421.13,256.5c2.15,3.89,7.24,12,8.88,17.25,0,0,.4.69.95.7a1.41,1.41,0,0,0,1.31-1c.19-.61-4.17-12.93-7.23-19,0,0-1.1-2.17-2.3-2.45S419.32,253.11,421.13,256.5Z" transform="translate(-20.98 -31.18)"/><path class="cls-16" d="M421.83,220.88c1.42,4.52-2.08,7.85,1.48,20.13.46,1.57-8,2.28-11.45.62,0,0-.94-.5-.64-2.27s2.44-4.7,1.91-8.23-1.6-6.67-.94-8.16c1.31-2.93,2.46-4.58,3.48-5.23C417.65,216.49,420.86,217.77,421.83,220.88Z" transform="translate(-20.98 -31.18)"/><path class="cls-52" d="M415,215.88v.58a.65.65,0,0,1,.61.34c.19.37,0,.76.08,1.07s1.56-.33,1.76-.53a.53.53,0,0,0,.18-.66,9.25,9.25,0,0,1-.68-1.18C416.84,215.25,415,215.88,415,215.88Z" transform="translate(-20.98 -31.18)"/><path class="cls-49" d="M417.91,212.88h0l.27.57c-.91,1.3-1.61,2.79-3.34,3-1.31.18-1.56-.46-1.6-.62a11.72,11.72,0,0,0-.27-1.15c-.05-.06-.45,0-.5-.19a18.51,18.51,0,0,1,0-3.36,4.2,4.2,0,0,1,1.58-2.82c3-.14,2.41,3.83,2.95,3.49s1.1,0,1,.76A.66.66,0,0,1,417.91,212.88Z" transform="translate(-20.98 -31.18)"/><path class="cls-12" d="M413.32,209.08c1.62-.16.78,3.13,1.13,4.46.58,2.2,1.83,2.58,1.28,4.84a.2.2,0,0,0,0,.24c.11.12,5.73-.34,6-2.65s-1.62-2.84-1.83-5.11-.71-3.54-2.81-3.89S412.36,208.16,413.32,209.08Z" transform="translate(-20.98 -31.18)"/><path class="cls-61" d="M402.36,272.53c0,.21,0,.4,0,.53a8.11,8.11,0,0,0,.08,1.42,1.4,1.4,0,0,1,0,.62s.11.31-.07.4a5.27,5.27,0,0,1-2.12.21,6.74,6.74,0,0,0-2.52.14c-.57.19-1.78.32-2.32-.38a.33.33,0,0,1,.06-.31c.12-.13-.15-.94.64-1.11s3.11-.7,3.52-1.54a.37.37,0,0,1,.37-.14c.21.05.59.48,1.15.46s.88,0,1-.23.23-.07.23-.07Z" transform="translate(-20.98 -31.18)"/><path class="cls-52" d="M409.84,239.64l-1.32.54a1.12,1.12,0,0,1-1.39-.51h0a.91.91,0,0,1,.46-1.28l1.31-.54a1.13,1.13,0,0,1,1.4.51h0A.91.91,0,0,1,409.84,239.64Z" transform="translate(-20.98 -31.18)"/><path class="cls-52" d="M409,238.46l-.59-.31a.35.35,0,0,1-.1-.56h0a.57.57,0,0,1,.69-.15l.6.3a.36.36,0,0,1,.1.57h0A.6.6,0,0,1,409,238.46Z" transform="translate(-20.98 -31.18)"/><path class="cls-61" d="M432,271.88c0,.22,0,.41.07.53a8.43,8.43,0,0,0,.32,1.4,1.31,1.31,0,0,1,.1.61s.16.28,0,.4a5.32,5.32,0,0,1-2.06.56,6.65,6.65,0,0,0-2.45.56c-.54.28-1.71.61-2.35,0a.33.33,0,0,1,0-.31c.1-.16-.31-.91.45-1.21s2.95-1.2,3.21-2.11a.38.38,0,0,1,.34-.19c.22,0,.66.37,1.21.27s.87-.16.95-.41.21-.11.21-.11Z" transform="translate(-20.98 -31.18)"/><path class="cls-50" d="M422.15,220.91c-6.95-9-10.73,11.25-.14,14.33,4.6,1.33-.12-.84-.12-.84-7.81-4.5-5.16-17.28-.41-12.2C422.13,222.9,421.85,222.27,422.15,220.91Z" transform="translate(-20.98 -31.18)"/><path class="cls-50" d="M425.93,236.19l-2.63.34a1.5,1.5,0,0,1-1.7-1.37l-1.4-15.89a1.66,1.66,0,0,1,1.42-1.77l2.63-.33a1.49,1.49,0,0,1,1.69,1.36l1.4,15.9A1.64,1.64,0,0,1,425.93,236.19Z" transform="translate(-20.98 -31.18)"/><path class="cls-33" d="M427.73,236.08l-5.57.72a.62.62,0,0,1-.7-.56l-.35-4a.68.68,0,0,1,.59-.72l5.57-.72a.62.62,0,0,1,.69.56l.35,4A.67.67,0,0,1,427.73,236.08Z" transform="translate(-20.98 -31.18)"/><path class="cls-30" d="M420.54,223.48c-.54,3.68-1.65,10-2.09,10.72-.61,1-7.5,5.3-9,5.42,0,0-.17,0-.14-.21s.32-.92.15-1.21.07-.4.41-.48a62.17,62.17,0,0,0,6.09-4.79c1-1,.19-9,.21-10C416.25,218.28,421.34,218,420.54,223.48Z" transform="translate(-20.98 -31.18)"/><path class="cls-12" d="M390.57,175.62s0-1.8-.83-2.26a1,1,0,0,0-1.21,0,1.62,1.62,0,0,0-.89.84c-.17.55-.6,1.38-.11,1.38Z" transform="translate(-20.98 -31.18)"/><path class="cls-12" d="M378.3,175.62s0-1.8-.83-2.26a1,1,0,0,0-1.2,0,1.62,1.62,0,0,0-.9.84c-.17.55-.6,1.38-.1,1.38Z" transform="translate(-20.98 -31.18)"/><path class="cls-49" d="M240.7,294.38a5.25,5.25,0,0,0,.17,1.63c.06.1,0,.22-.08.31-.13.29-.55.69-1.9.89a14.38,14.38,0,0,1-3.65,0c-.78-.1-.32-.49,0-.65a24.13,24.13,0,0,0,3.53-1.45c.41-.4.11-1.08.17-1.19S240.51,293.78,240.7,294.38Z" transform="translate(-20.98 -31.18)"/><path class="cls-12" d="M240.87,296a.47.47,0,0,1,.33.34A3.59,3.59,0,0,1,241,298c-.17.35-1.09.22-2.68.22H236c-.87,0-2.15-.26-2.29-.59s.54-1,1.72-1.1c0,0-.24.15.06.38a5.3,5.3,0,0,0,3,.26C240,296.93,240.81,296.25,240.87,296Z" transform="translate(-20.98 -31.18)"/><path class="cls-12" d="M239.13,262.16l0,1.08s-1.39,10.07-1.34,13.38.69,3.82.72,7.16.37,9.75.34,10.55,1.46.63,1.88.29.86-11.52.74-13.18a21.08,21.08,0,0,1,.57-5.53c.38-1.54,2.66-10.07,2.66-12.3S239.13,262.16,239.13,262.16Z" transform="translate(-20.98 -31.18)"/><path class="cls-49" d="M244.89,278a1.17,1.17,0,0,0,.58.08,7.66,7.66,0,0,1,.82,0,1,1,0,0,1,.31.07c.3.12.72.51,1,1.84a14.91,14.91,0,0,1,.16,3.65c-.06.79-.47.35-.65,0a14.91,14.91,0,0,0-1.82-3.4c-.7-.62-.8-.55-.91-.6S244.3,278.22,244.89,278Z" transform="translate(-20.98 -31.18)"/><path class="cls-12" d="M246.29,278.05a.46.46,0,0,1,.32-.34,3.55,3.55,0,0,1,1.61.08c.35.15.27,1.08.36,2.67s.09,1.51.13,2.37-.13,2.16-.45,2.32-1.07-.48-1.2-1.66c0,0,.17.23.37-.08a5.1,5.1,0,0,0,.1-3C247.26,278.86,246.54,278.1,246.29,278.05Z" transform="translate(-20.98 -31.18)"/><path class="cls-21" d="M245.58,260.37a14.69,14.69,0,0,1,2.41,1.91c3.37,7.29-10.42,9.3-12,11.71-.28.4,8.89,3.79,9.16,4s0,1.64-.29,1.88-11.51-2.28-14.05-3.83c0,0-1.61-1.23-.07-3.94s8.66-7.24,9.14-7.81,1.27-1.27,1-2.26S245.58,260.37,245.58,260.37Z" transform="translate(-20.98 -31.18)"/><path class="cls-48" d="M233.91,248.55l-.36-.11a2.23,2.23,0,0,0-.43-.72,1.72,1.72,0,0,1-.68-1.05c0-.49,1.81-.75,1.81-.65s.77.85.7,1.16a5.52,5.52,0,0,1-.33.81Z" transform="translate(-20.98 -31.18)"/><path class="cls-29" d="M240.23,248.52s-2.29,5.32-2.75,5.86-2.43-5.33-2.86-6.39c0,0-.83,0-1.09.31a86.86,86.86,0,0,0,1.95,8.49,2.28,2.28,0,0,0,3.23,1.09c1.24-.53,4.43-6.14,5.1-7.18S242.72,246.07,240.23,248.52Z" transform="translate(-20.98 -31.18)"/><path class="cls-12" d="M247.55,245.65c2.4-3.35.66-5.68-1.23-6.79a4.51,4.51,0,0,1-1.61-3c0-2.7-1.33-5.79-4.14-4.92-5.14-2.1-5.5,2.52-4.72,5.58a2.76,2.76,0,0,1-1,2.47c-1.84,1.86-.76,4.27,0,5.59s-.57,2.79.12,3.82c.81,1.23,4.47,4.44,5.18,1.07C241.34,243.4,243.68,246.29,247.55,245.65Z" transform="translate(-20.98 -31.18)"/><path class="cls-48" d="M240.67,239.55l-.09.88a.58.58,0,0,1,.55.35,16.55,16.55,0,0,1,.5,3.32s0,.06.16,0a10.54,10.54,0,0,1,2.61-2l-2.34-5.31Z" transform="translate(-20.98 -31.18)"/><path class="cls-16" d="M241.61,243.92a7,7,0,0,1-1.14,1.89c-.95,1.25-3.21,3.42-3.21,4.54s1.26,3.63,1.42,4.79c.42,2.91-.13,5.43.21,8.36,0,.32.16.25.27.22a21,21,0,0,1,4.45-.23,7.09,7.09,0,0,0,4.46-.95.73.73,0,0,0,.19-.58,18.53,18.53,0,0,1-1.6-6.88c0-3.39,4.58-10.74-2.26-13a9.8,9.8,0,0,0-1.47.46A8.71,8.71,0,0,0,241.61,243.92Z" transform="translate(-20.98 -31.18)"/><path class="cls-30" d="M241.45,246.14s-1.25,6.48-1.62,7.19-4-5.33-4.74-6.41c0,0-.92.25-1.15.61,0,0,3.21,7.54,4.25,9a2.59,2.59,0,0,0,3.85.42c1.25-.89,3.43-7.91,3.92-9.22S243.63,242.81,241.45,246.14Z" transform="translate(-20.98 -31.18)"/><path class="cls-5" d="M231.21,240.74s-.3.08-.31.29.67,5,.76,5.14.17.49,2.16.28c0,0,.35-.07.42-.25s-.4-4.42-.43-4.92a.59.59,0,0,0-.62-.62C232.91,240.64,231.21,240.74,231.21,240.74Z" transform="translate(-20.98 -31.18)"/><path class="cls-49" d="M238.32,232.18a6.67,6.67,0,0,1-.81.76c-1.06.81-.89,4.25-.09,6.19.05.13.43,0,.58,0s1.06,1.07,1.27,1.41.69.15,1.14,0a4.36,4.36,0,0,0,1.91-2.27,5.47,5.47,0,0,0,0-2.57,2.3,2.3,0,0,0,.1-1.17c-.14-.52-.19-.42-.44-.51s-.3.8-.3.8S240.14,231.71,238.32,232.18Z" transform="translate(-20.98 -31.18)"/><path class="cls-12" d="M236.81,233.46c.7,1.61,3.87.51,4.85,1.33l-.26-1.68-.48-1.16a6.47,6.47,0,0,0-1.29-.67C239.49,231.33,236.75,232.39,236.81,233.46Z" transform="translate(-20.98 -31.18)"/><path class="cls-49" d="M234,247.77a4.68,4.68,0,0,0-1-.64c-.68-.36-1.25-.67-1.34-.92a.46.46,0,0,1,.11-.55c.12-.08.46,0,.6,0s-.22-.25-.46-.3a2.93,2.93,0,0,1-.62-.11.19.19,0,0,1-.07-.23,1.31,1.31,0,0,1,.48-.07,1.42,1.42,0,0,1,.65,0,1.8,1.8,0,0,0,.51.11.35.35,0,0,0,0-.36,2.21,2.21,0,0,0-.54-.52c-.11-.08-.49-.05-.66-.11s-.17-.28,0-.32a3.73,3.73,0,0,1,.76,0c.3,0,.43.2.82.45a3.66,3.66,0,0,1,1.31,1.23c.2.5.26,1.16.44,1.49S234.88,247.66,234,247.77Z" transform="translate(-20.98 -31.18)"/><path class="cls-12" d="M244.35,235.88l-2-.1c-1.51,1.34-1.14,4.82,0,6.36,1.31,1.78,3.48.29,4.31,1.14l.25-2.07S243,238,244.35,235.88Z" transform="translate(-20.98 -31.18)"/></g></svg>