<svg id="Layer_1" data-name="Layer 1" xmlns="http://www.w3.org/2000/svg" viewBox="0 0 50 50"><defs><style>.cls-1{fill:none;stroke:#231f20;stroke-miterlimit:10;}.cls-2{fill:#060507;}</style></defs><path class="cls-1" d="M15.54,24.81a9.89,9.89,0,1,1,9.89,9.89A9.88,9.88,0,0,1,15.54,24.81Z"/><path class="cls-2" d="M25.43,26.33l-1.31-1.15-3.75,3.21a.76.76,0,0,0,.52.21H30a.76.76,0,0,0,.52-.21l-3.75-3.21Z"/><path class="cls-2" d="M30.49,21.23A.8.8,0,0,0,30,21H20.89a.76.76,0,0,0-.52.21l5.06,4.33Z"/><polygon class="cls-2" points="20.13 21.69 20.13 27.98 23.79 24.87 20.13 21.69"/><polygon class="cls-2" points="27.07 24.87 30.73 27.98 30.73 21.69 27.07 24.87"/></svg>